<?xml version="1.0" standalone="no"?>
<!DOCTYPE svg PUBLIC "-//W3C//DTD SVG 20010904//EN"
 "http://www.w3.org/TR/2001/REC-SVG-20010904/DTD/svg10.dtd">
<svg version="1.0" xmlns="http://www.w3.org/2000/svg"
 width="10" height="10" viewBox="0 0 1280.000000 850.000000"
 preserveAspectRatio="xMidYMid meet">
<metadata>
Created by potrace 1.15, written by Peter Selinger 2001-2017
</metadata>
<g transform="translate(0.000000,850.000000) scale(0.100000,-0.100000)"
fill="#000000" stroke="none">
<path d="M5745 8494 c-16 -2 -77 -9 -135 -15 -207 -22 -414 -88 -530 -170 -98
-68 -141 -152 -143 -275 -4 -202 179 -352 552 -454 370 -100 1045 -190 1435
-190 174 0 202 -3 316 -29 150 -34 172 -37 510 -56 442 -25 824 -35 1270 -35
l425 1 -55 51 c-75 70 -228 169 -352 227 -215 101 -422 167 -969 310 -475 124
-576 157 -999 331 -587 242 -796 298 -1130 305 -91 2 -178 2 -195 -1z"/>
<path d="M540 7979 c-122 -13 -269 -53 -365 -99 l-83 -40 -30 -77 c-60 -154
-75 -309 -46 -450 28 -137 88 -245 188 -343 141 -137 305 -202 557 -219 158
-12 250 -35 372 -96 113 -57 178 -102 365 -249 l152 -121 -6 -115 c-8 -145 8
-217 76 -355 123 -247 275 -389 574 -535 242 -118 456 -180 628 -180 110 -1
170 -19 254 -76 58 -39 435 -414 597 -594 79 -88 176 -173 254 -221 l32 -20
11 38 c25 88 34 253 21 402 -14 171 1 150 -173 253 -213 126 -463 235 -646
282 -31 9 -128 25 -214 36 -229 30 -331 62 -403 124 l-30 26 41 -6 c23 -3 73
-1 112 6 104 17 163 57 240 160 125 168 155 202 230 258 91 68 171 105 284
134 68 17 102 20 198 15 63 -2 128 -10 144 -16 36 -15 47 -6 83 66 63 130 12
361 -121 548 -196 274 -663 617 -989 727 -87 29 -98 30 -212 25 -141 -5 -261
-34 -412 -99 -203 -87 -350 -194 -400 -292 -54 -107 -105 -268 -143 -456 -12
-57 -23 -107 -26 -109 -8 -8 -4 104 7 194 50 411 356 712 802 791 466 82 956
-204 1434 -836 l96 -127 34 7 c18 5 57 24 86 44 29 20 56 36 61 36 5 0 -10
-13 -33 -28 -92 -62 -121 -143 -128 -362 l-5 -155 168 0 c195 0 213 5 284 80
25 25 58 53 73 61 25 14 33 13 83 -5 119 -45 223 -19 406 103 l78 51 0 74 0
73 41 -37 c126 -114 264 -84 456 99 l99 94 62 1 c104 1 147 36 211 172 58 124
70 136 138 145 71 9 170 -9 236 -42 27 -14 92 -54 143 -89 109 -75 181 -100
264 -92 83 7 142 42 268 160 161 149 234 183 442 207 52 6 110 13 127 16 32 5
35 2 87 -78 30 -46 112 -191 183 -323 210 -389 288 -501 434 -620 229 -189
518 -269 1119 -310 52 -3 104 -9 115 -12 49 -13 -1 11 -72 36 -44 15 -118 48
-165 73 -211 112 -337 237 -635 633 -67 88 -155 198 -196 245 -137 155 -340
313 -537 418 -126 67 -522 229 -633 258 -108 29 -309 50 -607 64 -339 16 -557
43 -656 80 -15 6 -29 8 -33 5 -3 -3 14 -41 37 -84 40 -74 50 -119 36 -155 -4
-11 -20 10 -48 66 -84 168 -212 232 -613 306 -150 28 -186 28 -120 1 50 -21
158 -136 191 -203 40 -83 53 -169 39 -251 -16 -93 -47 -151 -122 -225 -62 -61
-82 -73 -312 -182 -135 -65 -272 -127 -305 -139 -99 -34 -202 -50 -327 -48
-71 0 -123 -3 -131 -10 -21 -18 -86 -42 -86 -32 0 5 16 19 36 30 l37 22 -24
26 c-43 46 -312 257 -444 348 -404 279 -934 548 -1435 730 -429 155 -1009 304
-1364 350 -153 20 -387 26 -496 14z"/>
<path d="M7716 7186 c241 -82 458 -222 679 -441 61 -60 201 -211 311 -335 384
-434 535 -561 849 -711 140 -67 260 -108 405 -140 182 -39 478 -30 610 19 24
9 24 9 -10 20 -63 20 -123 31 -280 47 -249 27 -405 84 -571 206 -103 77 -201
174 -389 389 -378 430 -627 641 -924 785 -227 109 -428 162 -721 190 l-60 5
101 -34z"/>
<path d="M8710 7207 c0 -23 16 -31 145 -71 138 -43 333 -134 485 -226 58 -34
231 -149 385 -254 525 -359 755 -478 1074 -555 164 -40 287 -54 486 -54 331 1
655 69 1002 212 165 68 383 178 383 194 0 7 22 35 50 62 52 51 80 98 80 134 0
12 -6 21 -14 21 -8 0 -68 -27 -133 -60 -186 -95 -405 -133 -763 -133 -532 -1
-1012 121 -1692 432 -95 43 -227 109 -292 146 -279 156 -293 160 -551 151
-104 -3 -253 -9 -330 -12 -127 -6 -250 3 -299 22 -10 4 -16 1 -16 -9z"/>
<path d="M8250 7174 c162 -48 359 -146 520 -259 123 -87 282 -224 519 -448
462 -437 635 -571 896 -697 397 -192 892 -228 1356 -100 233 64 484 197 679
359 57 47 265 245 252 239 -4 -2 -55 -26 -112 -54 -298 -146 -653 -229 -1030
-241 -405 -13 -735 57 -1097 232 -190 91 -299 157 -678 405 -343 225 -424 274
-588 358 -214 110 -439 185 -654 217 -144 21 -162 18 -63 -11z"/>
<path d="M7559 6870 c-11 -7 -14 -37 -13 -137 0 -118 3 -134 32 -212 60 -160
164 -285 284 -341 77 -37 98 -38 91 -7 -13 53 -77 172 -161 300 -103 157 -136
222 -158 310 -17 66 -48 103 -75 87z"/>
<path d="M7365 6850 c-84 -21 -152 -70 -201 -145 l-37 -55 18 -55 c21 -67 16
-109 -25 -229 l-28 -85 39 -44 c129 -147 385 -280 568 -294 99 -7 197 19 256
70 l39 34 -48 16 c-139 47 -290 173 -360 298 -67 121 -116 310 -116 447 l0 52
-37 -1 c-21 -1 -51 -5 -68 -9z"/>
<path d="M6108 6713 c-44 -11 -4 -143 67 -221 115 -128 345 -210 560 -200 211
11 327 106 329 269 0 38 -3 71 -6 75 -11 10 -79 -16 -149 -57 -143 -85 -223
-79 -469 40 -185 89 -265 112 -332 94z"/>
<path d="M6040 6535 c0 -42 36 -132 84 -210 97 -155 266 -299 414 -351 80 -28
184 -32 240 -9 50 21 108 79 138 138 23 44 60 165 52 172 -2 2 -37 -8 -78 -23
-103 -36 -285 -37 -405 -3 -167 47 -290 127 -346 227 -33 58 -43 68 -76 78
-20 6 -23 4 -23 -19z"/>
<path d="M5916 6494 c-10 -15 -44 -37 -75 -51 -54 -24 -111 -68 -111 -85 0 -5
11 -26 25 -47 14 -21 56 -108 94 -193 117 -267 182 -362 283 -412 86 -43 221
-33 281 22 25 23 54 79 62 123 6 35 5 36 -59 77 -88 58 -147 127 -281 327 -62
94 -133 192 -157 218 l-43 47 -19 -26z"/>
<path d="M5542 6251 c-74 -70 -119 -93 -189 -99 -80 -7 -70 -47 41 -161 81
-83 100 -116 140 -236 35 -108 58 -142 109 -165 62 -28 161 -27 218 3 65 35
93 91 94 187 0 124 -53 216 -245 425 -51 55 -95 101 -99 102 -3 1 -34 -24 -69
-56z"/>
<path d="M7070 6133 c1 -137 60 -266 184 -400 98 -106 230 -194 346 -232 109
-35 273 -32 402 9 79 24 183 92 216 140 49 73 49 158 -1 216 l-22 26 -65 -18
c-51 -15 -101 -19 -235 -19 -148 0 -180 3 -249 23 -154 45 -303 126 -473 259
-51 40 -96 73 -98 73 -3 0 -5 -35 -5 -77z"/>
<path d="M5141 6115 c-18 -8 -61 -37 -95 -64 -80 -64 -117 -82 -182 -88 l-53
-6 20 -38 c10 -21 37 -67 59 -101 45 -69 70 -142 70 -203 0 -50 14 -65 86 -94
163 -63 423 -32 446 54 12 41 0 131 -22 182 -25 57 -58 100 -158 208 -47 50
-94 107 -106 127 -24 43 -20 42 -65 23z"/>
<path d="M6956 6049 c-48 -109 25 -348 161 -527 127 -167 314 -292 512 -343
309 -80 700 76 752 299 11 45 -4 126 -30 166 l-19 29 -89 -84 c-134 -128 -245
-172 -433 -172 -131 -1 -212 19 -345 83 -212 104 -386 299 -451 508 -15 45
-29 82 -33 82 -4 0 -15 -19 -25 -41z"/>
<path d="M4565 5930 c-22 -5 -102 -34 -179 -65 -96 -39 -163 -60 -220 -67 -44
-7 -82 -13 -84 -14 -7 -5 71 -212 109 -289 51 -106 100 -170 157 -206 101 -64
160 -62 353 15 65 25 143 49 179 53 l65 8 3 75 c4 94 -26 194 -101 335 -50 95
-56 101 -107 127 -64 31 -119 40 -175 28z"/>
<path d="M6829 5924 c-20 -25 -83 -53 -156 -70 -37 -9 -69 -17 -71 -19 -2 -1
15 -67 37 -146 155 -554 340 -771 748 -880 111 -30 343 -38 432 -14 178 46
268 147 279 313 l5 72 -28 0 c-16 0 -51 -15 -79 -34 -42 -29 -66 -37 -136 -46
-219 -30 -443 35 -628 182 -159 127 -307 367 -359 581 -10 42 -21 77 -24 77
-4 0 -12 -7 -20 -16z"/>
<path d="M3644 5836 c-17 -8 -39 -24 -48 -37 -16 -23 -15 -25 58 -99 122 -125
283 -330 258 -330 -17 0 -87 57 -132 107 -25 27 -80 90 -122 140 -84 99 -151
143 -219 143 -82 0 -119 -30 -266 -212 -138 -172 -200 -220 -302 -234 -43 -6
-49 -9 -39 -21 39 -47 152 -73 319 -73 112 0 151 -8 329 -72 123 -43 351 -157
450 -223 223 -150 395 -337 499 -544 20 -39 36 -60 42 -54 5 5 19 36 31 69 20
51 23 79 23 204 0 137 -2 150 -32 237 -44 127 -96 226 -236 453 -119 193 -214
370 -237 443 -9 30 -21 42 -61 62 -101 52 -247 70 -315 41z"/>
<path d="M6495 5729 c-115 -76 -153 -92 -244 -98 l-85 -6 34 -38 c19 -22 66
-61 106 -88 39 -26 86 -65 103 -86 47 -57 102 -171 166 -343 75 -203 112 -268
204 -361 167 -166 396 -289 538 -289 51 0 211 38 284 66 100 39 159 94 181
166 11 38 10 42 -10 59 -34 27 -103 33 -203 19 -113 -16 -198 -8 -304 28 -116
40 -225 111 -326 212 -96 96 -165 193 -233 328 -71 141 -136 353 -136 443 0
16 -3 29 -7 28 -5 0 -35 -18 -68 -40z"/>
<path d="M6005 5634 c-42 -55 -101 -93 -156 -100 -27 -4 -49 -11 -49 -16 0 -5
12 -44 26 -86 60 -180 161 -320 258 -357 95 -37 237 -2 293 72 21 28 28 49 31
99 7 99 -25 137 -176 213 -87 44 -130 85 -137 129 -15 90 -45 106 -90 46z"/>
<path d="M1765 5558 c27 -219 100 -421 204 -561 52 -71 130 -148 205 -204 44
-32 75 -68 119 -136 171 -265 335 -411 874 -778 253 -171 266 -179 329 -181
60 -2 68 -9 157 -126 38 -52 88 -106 110 -120 38 -26 48 -27 166 -28 74 0 143
-6 166 -14 22 -7 114 -49 205 -92 212 -102 278 -125 604 -210 419 -109 516
-148 616 -250 90 -91 111 -139 196 -432 65 -225 88 -285 143 -369 23 -36 45
-84 50 -113 5 -27 14 -60 19 -74 23 -58 103 -101 223 -119 89 -14 233 -29 237
-26 2 2 -21 50 -52 107 -83 156 -109 229 -110 318 0 65 3 82 28 127 16 29 33
50 37 47 12 -7 26 -62 64 -253 49 -244 84 -313 179 -357 57 -26 121 -33 113
-11 -3 7 -11 73 -18 145 -13 138 -4 236 25 290 12 23 13 22 39 -35 74 -164 92
-408 48 -623 -49 -236 -170 -527 -351 -840 -46 -80 -94 -164 -107 -186 -20
-36 -29 -43 -66 -48 -241 -34 -543 -41 -647 -13 -87 22 -107 21 -135 -8 -44
-43 -34 -55 43 -55 37 0 144 -9 237 -20 94 -12 223 -21 287 -22 65 -1 114 -5
110 -9 -12 -12 -105 -40 -162 -50 -30 -5 -143 -16 -250 -24 -192 -16 -312 -35
-352 -56 -16 -9 -24 -7 -41 9 -29 26 -61 35 -96 27 -38 -8 -81 -48 -81 -74 0
-20 4 -21 295 -18 l295 2 -35 -30 c-19 -16 -36 -35 -37 -42 -4 -16 368 -27
426 -13 83 21 113 40 132 82 30 68 71 86 222 103 97 11 150 22 207 45 115 46
153 52 216 36 30 -8 54 -14 55 -13 0 1 18 28 39 60 42 65 93 104 152 118 36 8
40 6 75 -32 21 -22 42 -38 48 -34 27 17 -3 94 -45 113 -86 39 -282 -23 -325
-103 -11 -20 -18 -24 -34 -18 -49 18 -112 8 -196 -31 -61 -29 -97 -40 -132
-40 -26 0 -50 3 -54 6 -8 8 147 378 236 564 144 301 286 464 494 564 l83 40
108 203 c138 256 238 438 304 549 28 48 51 94 51 102 0 9 -10 36 -22 60 l-21
45 54 63 c74 86 89 97 129 98 70 0 69 -6 -36 -176 -218 -357 -257 -424 -313
-539 -33 -66 -70 -151 -84 -190 -14 -38 -28 -77 -32 -86 -9 -24 108 -44 199
-34 62 6 69 10 84 37 44 79 74 119 94 127 30 11 36 -5 37 -86 1 -34 6 -74 13
-88 11 -24 15 -25 89 -25 72 0 79 2 98 26 12 15 26 45 32 68 11 39 10 70 -7
292 -9 105 0 146 38 189 36 42 50 43 77 9 37 -47 52 -121 62 -303 5 -95 14
-192 20 -215 15 -58 55 -105 107 -128 59 -26 113 -20 176 21 28 17 56 31 63
31 8 0 31 -19 52 -41 32 -35 43 -41 64 -35 32 8 47 53 47 138 0 113 -41 183
-212 365 -122 131 -163 196 -177 282 l-8 52 26 -6 c62 -15 132 -56 195 -115
66 -63 123 -142 287 -403 94 -150 173 -233 265 -278 65 -32 74 -34 169 -33
125 1 252 37 247 70 -9 55 -54 117 -163 226 -159 159 -190 230 -155 351 l17
57 47 0 c87 0 146 -25 211 -88 50 -49 71 -84 155 -251 112 -224 136 -261 207
-325 171 -154 522 -94 720 122 77 84 104 148 104 247 0 68 -4 89 -29 139 -37
76 -134 173 -255 256 -131 90 -260 189 -386 295 -404 341 -788 525 -1178 564
l-88 9 -96 101 c-248 263 -612 500 -1042 678 -65 27 -103 51 -161 102 -41 37
-133 116 -203 175 l-128 108 -87 -8 c-48 -4 -104 -7 -124 -6 -36 2 -38 0 -67
-55 -16 -32 -37 -69 -48 -82 l-19 -24 -80 26 c-111 35 -129 39 -216 38 -84 -1
-161 -25 -194 -62 -23 -25 -28 -25 -110 15 -123 59 -255 206 -316 353 -13 33
-28 53 -38 53 -21 0 -51 -28 -79 -73 -30 -49 -69 -62 -181 -62 -84 0 -102 3
-152 28 -56 28 -134 95 -174 152 l-22 30 -48 -52 c-52 -56 -79 -66 -89 -33 -3
10 -37 48 -76 84 -67 62 -71 64 -112 59 -52 -7 -108 -34 -143 -70 -14 -16 -55
-88 -91 -162 -72 -150 -100 -191 -151 -223 l-35 -22 -29 35 c-16 19 -55 86
-86 149 -59 120 -115 190 -150 190 -19 0 -20 -4 -15 -119 9 -182 -18 -286 -88
-345 l-32 -27 -31 29 c-17 16 -107 98 -201 182 -93 85 -217 204 -275 264 -388
410 -444 449 -728 501 -346 62 -548 166 -944 487 -53 43 -100 78 -103 78 -4 0
-4 -24 0 -52z"/>
<path d="M5514 5526 c-38 -17 -96 -85 -89 -106 2 -8 11 -89 19 -180 18 -198
28 -237 62 -250 55 -21 167 -3 270 44 47 22 53 28 58 63 15 84 -42 252 -116
346 -56 70 -148 108 -204 83z"/>
<path d="M5085 5446 c-22 -9 -48 -26 -59 -38 -28 -36 -16 -111 50 -288 55
-148 58 -160 61 -263 l3 -108 49 -57 c27 -31 73 -86 103 -122 72 -87 123 -122
187 -128 63 -6 92 2 130 34 26 21 31 33 31 68 0 49 -22 94 -112 234 -76 117
-95 182 -109 372 -12 171 -28 235 -67 273 -26 25 -37 28 -128 33 -73 3 -109 1
-139 -10z"/>
<path d="M4755 5293 c-77 -18 -99 -27 -144 -58 -58 -40 -61 -41 -102 -19 -17
8 -33 13 -35 11 -3 -2 13 -70 35 -150 60 -215 96 -299 158 -368 l36 -40 19 30
c11 17 36 41 56 53 76 47 204 18 251 -55 l18 -29 18 48 c23 65 31 226 15 295
-38 161 -136 266 -265 282 -22 3 -49 3 -60 0z"/>
<path d="M6428 5106 c-20 -42 -69 -80 -124 -96 -42 -13 -146 -10 -178 5 -17 7
-17 6 -6 -16 7 -13 59 -90 116 -172 145 -208 210 -351 238 -518 6 -36 8 -37
74 -54 38 -9 95 -20 127 -24 72 -10 90 -1 135 69 45 69 52 74 95 59 28 -11 44
-11 82 0 26 6 49 14 51 16 6 6 -45 88 -83 133 -20 23 -100 95 -178 160 -196
164 -259 252 -290 403 -15 75 -35 87 -59 35z"/>
<path d="M5873 5108 c18 -48 58 -191 73 -258 22 -97 22 -294 1 -370 l-15 -55
34 -46 c97 -133 236 -201 348 -169 39 11 44 15 50 48 33 204 -47 416 -233 615
-76 82 -265 253 -258 235z"/>
<path d="M5645 4955 c-44 -8 -86 -14 -93 -14 -13 -1 -12 -11 10 -101 13 -53
51 -132 85 -177 34 -45 115 -83 176 -83 48 0 48 0 69 47 27 60 21 168 -13 268
l-25 70 -64 2 c-36 0 -101 -5 -145 -12z"/>
<path d="M3945 3317 c32 -103 117 -193 303 -319 76 -51 157 -110 181 -133 112
-102 233 -308 301 -512 98 -297 114 -580 44 -820 -43 -149 -254 -552 -341
-651 l-38 -43 -170 11 c-233 15 -288 24 -374 66 -70 34 -76 36 -115 24 -55
-16 -156 -64 -185 -88 l-24 -19 27 -7 c18 -4 43 1 80 19 68 32 89 32 134 -5
27 -21 63 -36 127 -50 50 -12 115 -28 145 -37 l55 -16 -60 -14 c-33 -7 -123
-16 -200 -19 -158 -7 -234 3 -289 41 -34 23 -36 23 -93 8 -71 -18 -109 -37
-117 -59 -9 -23 -7 -23 42 -14 52 9 97 0 199 -41 100 -41 203 -48 322 -24 94
19 203 22 241 7 l25 -10 -37 -16 c-20 -9 -83 -20 -140 -25 -57 -5 -116 -14
-133 -21 -31 -12 -65 -38 -65 -50 0 -11 242 20 390 50 80 16 249 57 375 90
250 66 480 120 514 120 32 0 25 17 -21 47 -62 42 -143 38 -268 -11 -84 -34
-210 -59 -210 -43 0 19 94 221 158 339 40 75 95 186 121 245 128 292 167 324
424 343 332 25 404 54 451 181 46 124 38 213 -38 434 -19 55 -44 156 -55 225
-26 148 -48 192 -135 262 -89 72 -226 132 -517 229 -146 48 -355 121 -465 162
-294 110 -372 133 -542 161 -31 5 -33 4 -27 -17z"/>
</g>
</svg>
