<?xml version="1.0" standalone="no"?>
<!DOCTYPE svg PUBLIC "-//W3C//DTD SVG 20010904//EN"
 "http://www.w3.org/TR/2001/REC-SVG-20010904/DTD/svg10.dtd">
<svg version="1.0" xmlns="http://www.w3.org/2000/svg"
 width="10" height="10" viewBox="0 0 883.000000 1280.000000"
 preserveAspectRatio="xMidYMid meet">
<metadata>
Created by potrace 1.15, written by Peter Selinger 2001-2017
</metadata>
<g transform="translate(0.000000,1280.000000) scale(0.100000,-0.100000)"
fill="#000000" stroke="none">
<path d="M8582 12788 c-6 -6 -46 -12 -90 -14 -79 -2 -142 -23 -171 -57 -7 -9
-47 -28 -89 -43 -513 -183 -936 -449 -1341 -840 -298 -288 -521 -578 -786
-1019 -264 -439 -384 -758 -424 -1123 -12 -110 -36 -159 -118 -239 -38 -38
-53 -60 -53 -80 -1 -15 -7 -57 -15 -93 -7 -36 -12 -66 -11 -68 2 -1 25 15 52
36 27 22 62 46 78 54 28 15 32 14 87 -19 83 -50 146 -108 179 -167 32 -55 36
-77 19 -104 -8 -13 -7 -31 5 -72 50 -165 20 -398 -66 -517 -45 -63 -56 -64
-51 -6 3 33 -4 74 -21 132 -29 95 -31 122 -15 221 13 75 9 106 -19 140 -27 33
-56 14 -77 -51 -9 -28 -24 -53 -31 -56 -8 -3 -49 10 -92 29 -108 50 -171 63
-292 62 -109 0 -163 -11 -239 -47 -33 -16 -46 -18 -49 -8 -10 29 -69 96 -88
99 -18 3 -22 -8 -43 -117 -26 -145 -44 -205 -71 -250 -21 -33 -21 -33 -42 -15
-103 94 -145 374 -77 518 35 76 70 106 121 106 23 0 63 9 87 20 l44 21 28 -27
c17 -16 35 -24 50 -22 21 3 25 11 33 65 8 59 7 66 -22 125 -40 80 -52 95 -93
112 -30 12 -39 26 -73 108 -22 51 -94 208 -160 348 -111 236 -135 276 -310
540 -215 325 -338 501 -474 680 -331 434 -661 749 -1022 974 -41 26 -106 72
-145 102 -135 106 -312 187 -550 251 -111 30 -133 40 -154 65 -57 71 -207 102
-278 58 -18 -11 -48 -19 -67 -18 -19 1 -59 -9 -90 -22 -50 -20 -62 -31 -106
-97 -57 -85 -85 -167 -77 -226 8 -55 22 -64 23 -14 2 68 22 127 43 127 10 0
43 18 75 41 31 22 73 45 93 51 34 9 37 8 87 -41 31 -31 60 -51 74 -51 31 0 92
-27 120 -53 35 -32 91 -118 150 -228 l52 -95 67 -23 c38 -13 77 -30 88 -37 25
-18 18 -18 -33 0 -33 12 -43 12 -58 2 -25 -19 -11 -42 33 -56 21 -7 43 -17 48
-22 6 -6 4 -7 -8 -2 -20 7 -47 -11 -47 -33 0 -7 16 -23 35 -34 19 -12 32 -25
29 -31 -3 -5 -3 -29 1 -54 6 -40 9 -44 35 -44 16 0 32 -4 35 -10 3 -5 -3 -10
-14 -10 -31 0 -26 -34 9 -63 19 -17 28 -31 24 -41 -4 -9 -1 -29 5 -45 9 -22
24 -32 68 -45 135 -43 362 -186 503 -316 62 -57 45 -47 -144 89 -159 114 -281
186 -359 211 -21 6 -41 10 -43 7 -3 -3 2 -22 10 -42 9 -21 16 -46 16 -56 0
-14 24 -31 88 -63 198 -100 348 -196 438 -281 43 -41 44 -44 11 -20 -141 100
-259 175 -439 278 l-47 27 -12 -21 c-15 -28 1 -43 68 -68 119 -43 447 -247
493 -307 11 -13 5 -11 -20 7 -53 39 -345 218 -375 229 -36 14 -78 12 -99 -3
-16 -12 -14 -15 26 -32 211 -90 283 -129 353 -189 70 -60 33 -47 -60 21 -105
76 -199 124 -260 130 -84 10 -57 -38 44 -78 65 -26 121 -57 121 -68 0 -5 -37
7 -82 25 -83 34 -128 42 -128 25 0 -16 53 -48 100 -61 56 -15 146 -61 185 -94
l30 -26 -45 19 c-25 11 -85 38 -135 60 -91 41 -115 48 -115 32 0 -24 47 -62
107 -86 156 -65 224 -96 263 -120 76 -48 33 -38 -87 20 -190 92 -289 119 -281
78 2 -13 35 -29 113 -55 161 -55 187 -65 240 -99 60 -38 53 -48 -12 -16 -71
36 -213 84 -269 92 l-49 6 35 -20 c19 -11 77 -34 128 -51 88 -30 168 -68 159
-77 -3 -2 -35 8 -73 22 -140 54 -248 81 -241 61 7 -20 69 -56 133 -76 72 -22
119 -44 130 -61 5 -8 3 -9 -5 -5 -12 8 -239 76 -253 76 -5 0 -8 -9 -8 -20 0
-24 36 -44 109 -59 58 -12 147 -48 139 -56 -2 -3 -38 4 -79 15 -92 24 -157 26
-166 5 -3 -9 -3 -18 0 -21 2 -3 51 -14 108 -26 91 -18 168 -43 157 -53 -1 -1
-43 6 -93 16 -92 19 -157 24 -168 13 -13 -14 15 -44 51 -54 20 -5 100 -19 177
-30 139 -20 241 -44 260 -61 12 -12 21 -13 -145 21 -80 17 -192 33 -248 37
l-104 6 4 -24 c3 -23 9 -25 156 -46 84 -12 160 -27 170 -32 24 -14 10 -14
-133 4 -154 19 -195 19 -195 1 0 -38 28 -46 155 -46 126 0 260 -14 298 -31 16
-7 3 -8 -43 -4 -188 14 -356 16 -379 3 -54 -29 -35 -35 119 -40 98 -3 154 -8
162 -16 9 -9 -17 -12 -119 -12 -118 0 -133 -2 -157 -21 -51 -40 -7 -47 205
-34 91 6 128 5 133 -4 5 -7 -1 -11 -16 -12 -13 0 -86 -4 -163 -8 -138 -8 -195
-22 -195 -47 0 -24 45 -25 169 -5 67 12 144 21 169 20 78 -1 21 -15 -137 -34
-145 -17 -184 -26 -195 -43 -11 -19 21 -20 100 -5 43 8 111 17 149 19 101 7
62 -12 -66 -32 -124 -18 -191 -38 -213 -63 -15 -16 2 -14 146 15 164 34 235
43 193 24 -11 -5 -78 -21 -148 -35 -123 -24 -217 -57 -217 -76 0 -13 7 -12
116 16 54 14 109 24 123 22 25 -3 24 -4 -12 -20 -21 -10 -73 -25 -115 -33 -82
-17 -120 -33 -141 -58 -20 -24 -1 -21 154 19 141 36 264 59 273 51 8 -9 -46
-26 -228 -73 -245 -62 -392 -136 -207 -104 34 6 125 31 202 56 146 47 244 70
266 63 7 -2 -64 -26 -157 -52 -93 -27 -209 -62 -259 -78 -88 -30 -211 -86
-203 -93 6 -7 189 41 378 99 190 58 370 101 392 94 12 -4 -61 -26 -357 -108
-315 -88 -456 -142 -501 -191 -17 -19 -17 -19 17 -5 181 75 778 250 795 234 2
-2 -142 -50 -319 -107 -177 -56 -382 -125 -455 -153 -148 -57 -177 -80 -227
-189 -36 -79 -60 -229 -37 -229 4 0 29 33 55 74 26 40 57 82 68 92 20 18 21
18 37 -3 15 -19 31 -22 127 -29 l110 -7 62 -59 c176 -169 308 -471 353 -803
13 -100 23 -149 42 -212 10 -37 9 -56 -6 -130 -23 -114 -23 -108 -8 -105 6 1
18 3 25 5 8 1 13 -18 15 -64 3 -66 3 -66 -28 -79 -32 -13 -64 -12 -235 11
-107 14 -548 6 -670 -12 -44 -6 -147 -12 -230 -13 -129 -1 -161 3 -226 22 -42
12 -139 35 -215 51 -163 34 -234 59 -306 109 -36 24 -63 36 -85 35 -18 -1 -78
-24 -134 -52 -85 -43 -110 -51 -156 -51 -42 0 -62 -6 -86 -24 -43 -32 -129
-74 -260 -126 -110 -43 -210 -101 -237 -136 -11 -15 -11 -16 0 -6 22 19 39 14
46 -13 3 -14 13 -25 20 -25 8 0 19 11 24 25 11 29 18 31 48 9 25 -17 43 -11
24 8 -36 36 16 45 77 14 16 -9 38 -16 47 -16 10 0 64 23 122 52 75 37 119 53
158 56 49 4 54 3 54 -15 0 -11 -14 -39 -30 -61 -33 -46 -37 -68 -15 -96 25
-33 19 -53 -20 -60 -41 -8 -89 -59 -60 -64 9 -2 37 1 61 7 67 17 92 6 115 -47
28 -66 82 -127 132 -151 92 -45 176 -9 93 40 -42 24 -58 54 -23 43 12 -3 39
-15 59 -25 48 -24 56 -24 79 4 26 31 24 47 -6 47 -34 0 -75 45 -75 81 0 27 1
27 27 13 16 -7 54 -14 86 -14 51 0 62 4 88 29 37 38 37 48 -3 43 -50 -6 -88
13 -88 43 0 22 2 24 26 15 15 -6 72 -10 128 -9 90 2 115 -2 226 -34 69 -20
267 -68 440 -107 300 -68 325 -72 525 -85 116 -8 239 -19 275 -26 63 -11 68
-11 175 25 99 34 110 36 121 21 17 -22 34 -128 34 -206 1 -102 18 -199 46
-248 18 -32 23 -53 18 -74 -5 -24 3 -40 52 -104 65 -84 122 -127 184 -137 82
-13 103 32 49 100 -33 41 -32 38 -10 144 6 25 10 84 11 132 0 103 9 132 56
172 26 23 36 40 36 62 1 36 18 49 130 95 39 16 86 41 104 54 30 23 42 25 131
25 118 0 150 -8 275 -67 l98 -46 0 -58 c0 -69 17 -153 65 -318 19 -69 34 -130
31 -137 -2 -6 -20 -14 -39 -18 -33 -6 -66 -31 -55 -42 3 -2 18 0 33 6 16 6 34
9 42 6 18 -7 17 -66 -1 -66 -9 0 -12 7 -9 20 4 15 0 20 -15 20 -28 0 -43 -23
-41 -61 5 -69 -221 -497 -332 -630 -46 -55 -47 -70 -24 -254 26 -213 39 -169
-174 -604 -199 -406 -275 -572 -336 -736 -42 -112 -99 -330 -110 -420 -4 -33
-15 -76 -25 -95 -10 -19 -28 -71 -40 -116 -16 -61 -31 -93 -61 -129 -22 -27
-45 -57 -50 -68 -16 -28 -13 -95 7 -167 14 -54 18 -114 19 -350 3 -386 38
-663 115 -902 l29 -91 -46 -51 c-25 -28 -71 -88 -100 -133 -30 -46 -59 -83
-66 -83 -6 0 -32 20 -57 44 -25 24 -56 47 -69 51 l-24 7 6 -118 c10 -193 46
-353 103 -465 24 -48 80 -119 93 -119 4 0 12 39 19 88 23 168 82 294 166 350
79 52 83 49 91 -71 4 -57 6 -144 4 -193 l-4 -90 28 4 c19 3 33 -2 42 -14 20
-27 18 -36 -4 -24 -30 16 -51 12 -51 -9 0 -11 5 -23 10 -26 17 -11 0 -25 -23
-20 -18 5 -32 -8 -81 -75 -80 -109 -162 -173 -248 -194 -17 -4 -25 -11 -22
-20 3 -9 -4 -13 -25 -14 -43 -1 -75 -26 -117 -90 -20 -32 -58 -89 -84 -129
-53 -80 -73 -146 -74 -243 -1 -61 17 -130 34 -130 21 0 30 31 24 84 l-7 56 39
1 c22 1 44 1 50 0 6 -1 29 16 51 38 47 47 106 66 172 55 61 -10 53 -12 229 62
85 35 160 64 168 64 8 0 38 24 67 54 41 42 80 67 180 117 142 69 203 122 193
164 -3 12 -12 73 -20 134 -15 109 -24 139 -54 173 -9 11 -24 83 -40 200 -28
212 -35 467 -13 561 l13 58 46 -6 c26 -4 178 -27 337 -52 330 -51 522 -63 679
-44 295 37 541 142 708 301 48 46 82 72 88 66 5 -5 37 -12 72 -15 l63 -6 13
-90 c22 -143 21 -527 -1 -650 -21 -114 -47 -209 -84 -310 -26 -68 -26 -72 -16
-180 7 -60 16 -121 21 -135 13 -34 240 -180 280 -180 16 0 49 -10 73 -23 33
-18 51 -37 75 -83 26 -49 41 -64 89 -91 36 -21 71 -33 95 -33 21 0 89 -9 152
-19 62 -11 154 -24 204 -30 150 -18 295 -69 354 -126 35 -34 90 -56 90 -37 0
25 -40 135 -63 175 -32 53 -87 103 -141 128 -23 10 -46 30 -55 47 -9 17 -50
65 -91 108 -68 70 -80 78 -134 91 -123 28 -208 99 -354 293 l-80 105 14 170
c20 260 56 465 109 640 33 107 38 114 63 91 22 -19 119 -29 138 -14 7 5 25
-10 50 -44 22 -29 44 -53 49 -53 6 0 14 19 19 42 8 39 6 46 -27 92 -68 94
-107 189 -122 294 -7 46 0 58 22 36 8 -8 13 -8 17 0 10 16 -2 31 -25 31 -20 0
-20 5 -16 264 l5 264 47 119 c98 244 213 442 333 573 80 87 102 156 109 330 4
110 3 132 -16 181 -12 31 -32 66 -46 79 -14 13 -25 21 -25 18 0 -2 11 -38 25
-78 29 -84 31 -123 10 -164 -19 -36 -19 -42 0 -26 28 23 30 0 6 -70 -13 -39
-21 -79 -18 -92 8 -28 -73 -163 -102 -171 -11 -2 -32 -24 -47 -48 -33 -52 -74
-99 -86 -99 -5 0 11 28 35 63 102 143 144 250 154 390 l6 89 -24 -4 c-17 -2
-23 1 -21 11 7 32 -12 94 -42 139 -50 73 -52 76 -33 69 8 -3 32 -1 51 4 31 8
36 14 36 39 0 35 13 45 57 42 27 -2 33 1 33 16 0 34 -39 73 -69 70 -19 -2 -34
6 -59 33 -45 51 -82 66 -198 79 -141 16 -228 2 -346 -58 -13 -6 -28 45 -64
213 -46 211 -42 202 -145 415 -105 220 -123 283 -116 397 4 73 3 84 -15 100
-35 31 -48 70 -64 183 l-15 109 23 31 c30 42 110 101 184 138 85 43 192 75
384 117 381 82 459 105 578 170 34 19 74 35 89 35 37 0 108 74 122 128 18 66
1 114 -66 176 -70 65 -127 145 -194 271 -29 54 -72 122 -94 150 -73 90 -80
102 -65 130 15 28 46 32 76 10 10 -8 34 -15 52 -15 25 0 32 -4 32 -20 0 -32
30 -24 37 11 4 23 10 28 22 23 9 -3 59 -12 111 -20 171 -26 190 -43 170 -158
-7 -41 -10 -79 -6 -84 14 -23 66 11 116 74 58 73 59 84 34 234 -8 52 -14 131
-12 176 2 58 -1 86 -11 97 -11 15 -10 19 8 34 20 18 21 19 6 113 -9 52 -18
183 -21 290 -6 228 -8 240 -33 240 -11 0 -33 11 -49 25 -33 27 -117 155 -102
155 5 0 34 -31 65 -69 31 -38 63 -72 71 -75 34 -13 44 19 19 64 -9 17 -10 29
-3 37 8 10 15 170 22 492 1 49 5 76 14 78 15 6 16 35 2 49 -7 7 -3 42 14 110
14 54 34 145 46 201 26 128 58 222 108 321 22 42 48 102 57 132 21 67 64 134
140 220 31 36 68 82 81 103 16 24 32 37 47 37 12 0 36 9 52 20 39 26 57 26 53
-1 -2 -15 3 -23 15 -25 10 -1 35 -10 54 -20 35 -16 37 -16 50 2 18 24 17 98
-2 138 -9 18 -44 61 -80 96 l-65 64 -60 1 c-33 0 -60 3 -60 7 0 3 -16 25 -35
48 -39 47 -48 88 -16 70 31 -16 35 4 12 64 -68 183 -70 512 -4 749 9 32 13 60
9 64 -14 14 -134 -19 -291 -82 -92 -37 -169 -65 -172 -62 -6 7 110 71 172 95
28 10 92 29 143 42 87 21 152 56 152 81 0 16 -78 9 -137 -12 -32 -12 -127 -55
-212 -95 -85 -41 -157 -74 -160 -74 -3 0 17 15 44 32 77 48 239 123 355 163
115 40 130 49 112 67 -18 18 -15 25 12 32 20 5 29 19 47 79 13 39 58 141 101
226 43 85 78 156 78 157 0 2 -13 4 -28 4 -37 0 -131 -31 -252 -82 -113 -48
-208 -82 -195 -69 18 17 229 104 369 152 138 48 140 49 152 86 7 20 11 39 9
41 -2 3 -23 0 -47 -6 -53 -14 -62 -8 -14 8 20 6 41 20 46 31 6 11 21 19 36 19
23 0 43 24 31 37 -17 16 -174 -27 -405 -112 -128 -47 -100 -21 34 32 153 60
242 88 342 105 73 12 74 13 97 58 13 25 48 77 78 117 30 40 57 77 59 84 2 6
27 14 56 17 34 3 52 9 52 18 0 21 58 81 85 88 17 4 22 11 18 21 -8 22 24 54
62 61 28 5 85 -13 135 -43 3 -2 11 10 18 26 11 25 11 34 -3 60 -20 40 -48 58
-131 81 -81 23 -86 24 -102 8z m131 -49 c19 -11 15 -14 -44 -31 -35 -11 -78
-31 -96 -44 -29 -22 -33 -23 -41 -8 -15 26 -40 9 -48 -31 -8 -44 -22 -51 -69
-35 -31 10 -46 8 -118 -15 -167 -55 -424 -170 -562 -251 -64 -37 -56 -22 13
24 76 52 145 86 337 167 165 69 269 120 225 110 -153 -37 -413 -149 -603 -260
-67 -40 -76 -49 -72 -68 5 -19 -1 -27 -35 -46 -188 -105 -438 -297 -553 -424
-44 -48 -94 -93 -116 -103 -27 -13 -80 -65 -167 -164 -468 -536 -732 -953
-883 -1397 -35 -106 -36 -111 -17 -132 13 -14 11 -25 -15 -86 -23 -54 -28 -74
-20 -91 7 -16 2 -43 -22 -110 -26 -75 -31 -104 -31 -184 -1 -52 3 -114 7 -137
10 -49 4 -52 -64 -31 -34 10 -39 15 -39 40 0 39 17 68 39 68 17 0 18 7 14 63
-3 34 0 80 6 102 9 33 8 42 -4 51 -13 10 -13 17 6 58 11 26 23 79 26 119 3 40
11 79 18 87 7 8 15 26 18 40 10 46 46 145 71 195 14 28 38 91 53 140 66 213
242 512 533 900 226 302 390 490 577 661 140 127 219 188 440 336 247 166 530
304 802 393 30 10 74 33 98 51 47 36 66 40 109 24 15 -6 31 -7 38 -2 37 30
149 42 189 21z m-6794 -212 c96 -65 109 -70 307 -127 273 -79 360 -131 810
-485 432 -340 591 -512 990 -1075 142 -199 216 -311 291 -435 71 -117 184
-327 180 -332 -5 -5 -161 213 -362 507 -359 525 -557 771 -846 1056 -205 201
-330 307 -534 450 -222 157 -408 240 -708 319 -56 15 -71 23 -83 47 -14 27
-17 28 -89 28 -41 0 -86 5 -100 12 -34 15 -44 56 -19 75 31 24 90 9 163 -40z
m-249 -6 c0 -12 -19 -17 -85 -25 l-50 -7 24 21 c24 21 111 29 111 11z m6230
-512 c-186 -69 -342 -121 -348 -114 -14 14 405 161 468 163 8 1 -46 -22 -120
-49z m-5525 -48 c-7 -6 -55 21 -55 31 0 5 13 1 30 -8 16 -10 27 -20 25 -23z
m110 -163 c82 -48 285 -191 279 -197 -2 -2 -80 46 -173 107 -93 61 -188 120
-210 132 -23 11 -41 23 -41 25 0 9 73 -25 145 -67z m5440 64 c-17 -15 -517
-253 -522 -249 -12 13 281 164 422 218 108 41 114 43 100 31z m-5520 -96 c70
-33 219 -128 232 -148 7 -12 -8 -4 -158 83 -64 37 -132 75 -151 83 -21 9 -26
15 -15 15 10 1 52 -14 92 -33z m5396 -42 c-45 -25 -134 -66 -226 -102 -27 -11
-68 -28 -90 -37 -71 -30 -23 1 100 64 127 65 207 99 240 100 13 0 4 -8 -24
-25z m-5430 -24 c28 -11 99 -51 157 -88 59 -38 134 -85 168 -105 75 -45 128
-87 157 -124 22 -27 21 -27 -23 5 -134 100 -355 239 -485 306 -60 30 -46 34
26 6z m5509 -4 c-8 -7 -37 -19 -64 -25 -26 -7 -112 -40 -190 -75 -77 -35 -152
-66 -166 -70 -51 -13 109 65 230 112 189 75 216 83 190 58z m-5088 -36 c50
-40 55 -55 8 -23 -47 32 -82 63 -70 63 7 0 35 -18 62 -40z m5058 -45 c0 -13
-288 -121 -297 -111 -8 8 130 69 207 92 81 25 90 27 90 19z m-5334 -74 c34
-16 87 -45 119 -66 56 -36 245 -183 245 -191 0 -2 -66 40 -147 94 -165 109
-243 156 -312 184 l-46 19 40 -6 c22 -4 68 -19 101 -34z m5259 -23 c-34 -20
-265 -106 -259 -97 3 5 29 21 57 36 83 42 263 97 202 61z m-5222 -81 c67 -35
160 -88 207 -118 85 -56 220 -166 220 -180 0 -5 -66 39 -146 97 -183 132 -272
187 -377 230 -58 24 -74 34 -54 34 15 0 82 -28 150 -63z m307 20 c16 -12 29
-26 29 -30 1 -10 -27 7 -64 39 -36 32 -7 25 35 -9z m4900 -6 c0 -5 -53 -29
-117 -54 -157 -60 -161 -61 -146 -46 10 10 237 107 256 108 4 1 7 -3 7 -8z
m-5255 -121 c11 -10 93 -66 183 -124 89 -58 162 -108 162 -111 0 -8 -25 6
-177 103 -76 49 -164 103 -195 121 -32 18 -58 34 -58 36 0 11 67 -10 85 -25z
m5210 -109 c-19 -16 -385 -175 -391 -169 -8 9 226 123 305 149 97 32 99 32 86
20z m43 -73 c-2 -6 -24 -18 -49 -26 -102 -32 -239 -86 -337 -132 -58 -28 -107
-48 -109 -46 -14 14 113 77 372 182 83 35 130 43 123 22z m-78 -104 c0 -10
-144 -72 -220 -94 -41 -11 -92 -28 -114 -36 -21 -8 -41 -13 -43 -10 -8 8 144
76 230 102 45 14 93 30 107 34 31 11 40 11 40 4z m15 -64 c-11 -18 -61 -39
-136 -56 -41 -9 -114 -34 -162 -55 -96 -43 -129 -50 -82 -19 69 45 203 94 383
139 2 1 0 -4 -3 -9z m-45 -74 c0 -12 -81 -49 -158 -72 -48 -14 -108 -34 -134
-44 -27 -11 -48 -15 -48 -10 0 14 99 58 215 94 119 36 125 38 125 32z m-4817
-73 c33 -20 55 -39 49 -41 -15 -5 -114 50 -120 66 -6 19 6 14 71 -25z m4837 7
c-13 -9 -99 -37 -264 -85 -28 -8 -52 -13 -54 -10 -10 10 14 25 71 44 142 47
286 77 247 51z m50 -25 c0 -13 -86 -46 -190 -73 -63 -17 -124 -33 -135 -37
-12 -4 -7 2 10 14 34 24 92 44 215 77 96 25 100 26 100 19z m-70 -101 c0 -12
-131 -63 -229 -88 -58 -15 -113 -32 -124 -37 -26 -14 -31 -6 -9 14 17 15 125
53 282 97 73 21 80 22 80 14z m-41 -94 c-19 -10 -93 -35 -165 -55 -71 -20
-140 -43 -153 -52 -18 -12 -22 -12 -19 -1 11 35 253 127 338 127 l35 0 -36
-19z m81 -28 c0 -14 -44 -35 -124 -57 -45 -12 -90 -26 -100 -30 -30 -13 -10
12 24 30 21 11 163 57 198 64 1 1 2 -2 2 -7z m-28 -84 c-13 -13 -222 -68 -222
-58 0 17 156 67 215 69 14 1 16 -2 7 -11z m8 -28 c0 -15 -49 -37 -115 -50 -33
-7 -68 -17 -78 -22 -10 -5 -21 -7 -24 -5 -8 9 58 40 137 63 41 12 76 22 78 23
1 1 2 -3 2 -9z m40 -72 c-38 -32 -115 -64 -225 -93 -55 -15 -126 -35 -157 -45
-32 -10 -58 -17 -58 -15 0 19 158 75 348 125 30 8 42 15 38 25 -6 16 8 23 49
24 l30 0 -25 -21z m278 -187 c65 -33 85 -52 100 -98 15 -46 -2 -41 -38 12 -17
25 -36 45 -43 45 -7 0 -48 -11 -92 -25 -44 -14 -88 -25 -97 -25 -20 0 -68 21
-68 29 1 17 111 71 145 71 21 0 34 4 30 10 -10 15 1 12 63 -19z m-278 -57 c0
-17 -107 -47 -232 -64 -203 -28 -445 -98 -517 -149 -14 -10 -89 -44 -166 -76
-410 -167 -606 -287 -722 -440 -38 -51 -52 -62 -69 -58 -61 14 -90 -116 -39
-171 13 -14 30 -26 37 -26 8 -1 6 -6 -6 -15 -18 -14 -18 -15 9 -25 31 -12 51
-27 125 -93 29 -26 47 -47 42 -47 -6 0 -47 25 -91 55 -44 30 -82 55 -85 55 -2
0 4 -26 14 -57 10 -32 28 -118 40 -191 21 -128 21 -136 6 -225 -34 -190 -72
-317 -95 -317 -6 0 -22 -22 -36 -50 -23 -45 -59 -79 -72 -67 -2 3 7 27 20 54
13 26 32 70 42 97 18 47 18 49 0 62 -18 14 -17 18 25 101 42 84 44 91 48 198
5 131 -13 240 -64 393 -19 57 -34 117 -34 133 0 16 -7 46 -15 66 -8 19 -15 47
-15 61 0 23 3 24 36 19 33 -6 36 -4 50 28 8 19 14 50 14 70 0 37 13 44 39 21
16 -14 34 -20 58 -17 7 0 43 28 80 61 312 278 870 501 1533 613 14 2 28 5 33
6 4 0 7 -2 7 -5z m-4694 -119 c18 -14 17 -15 -15 -13 -19 2 -36 9 -39 16 -5
17 30 15 54 -3z m99 -6 c5 -5 -6 -9 -28 -9 -35 0 -45 8 -30 23 8 8 43 -1 58
-14z m1395 -38 c7 -14 7 -22 0 -26 -13 -8 -40 13 -40 31 0 21 28 17 40 -5z
m35 -67 c20 -21 55 -89 55 -109 0 -8 -7 -15 -15 -15 -19 0 -38 36 -30 59 4 13
-2 24 -20 35 -14 9 -25 23 -25 31 0 20 15 19 35 -1z m-1510 -54 c-3 -5 -22
-10 -41 -10 -19 0 -34 5 -34 10 0 6 18 10 41 10 24 0 38 -4 34 -10z m10 -100
c-3 -5 -15 -10 -26 -10 -10 0 -19 5 -19 10 0 6 12 10 26 10 14 0 23 -4 19 -10z
m1636 -103 c14 -35 40 -77 62 -99 20 -21 37 -43 37 -48 0 -6 7 -24 15 -40 11
-21 11 -30 3 -32 -7 -3 -9 -12 -5 -22 4 -9 10 -15 15 -12 4 2 -1 -23 -13 -57
l-20 -62 -52 0 c-37 0 -60 -6 -80 -21 -24 -19 -28 -28 -29 -75 0 -31 -9 -73
-21 -99 -60 -133 -80 -332 -46 -454 15 -56 24 -69 110 -151 84 -82 93 -94 93
-127 0 -52 -15 -55 -52 -11 -17 21 -73 80 -124 131 l-92 92 -16 88 c-22 119
-21 159 4 172 25 14 26 35 0 53 -19 13 -19 14 0 53 25 51 36 114 21 114 -7 0
-17 -13 -22 -29 -8 -21 -24 -34 -69 -53 -78 -34 -148 -82 -260 -178 -88 -75
-131 -99 -81 -46 13 14 20 29 17 34 -8 13 50 59 164 134 47 31 107 79 133 107
42 45 53 51 88 51 34 0 42 4 47 22 3 12 17 46 32 75 32 63 25 82 -40 103 -23
8 -47 21 -53 30 -13 17 -290 97 -432 125 -44 9 -126 17 -182 18 -109 2 -137
13 -113 42 15 18 57 20 97 4 15 -6 89 -21 163 -34 275 -49 457 -100 503 -144
26 -24 30 -24 41 -9 9 12 22 15 58 11 46 -5 48 -4 107 52 50 48 61 64 61 90 0
36 -30 80 -60 90 -14 4 -20 15 -20 35 0 19 -7 33 -20 40 -17 9 -18 14 -8 30
11 17 8 24 -16 49 -19 20 -26 36 -22 47 6 15 9 15 30 -5 13 -12 34 -50 47 -84z
m2879 81 c-24 -11 -92 -29 -150 -39 -58 -9 -114 -21 -124 -25 -13 -5 -17 -4
-13 4 11 16 101 44 207 63 123 22 134 22 80 -3z m-4490 -37 c-8 -5 -40 -11
-70 -14 -53 -6 -54 -6 -25 8 32 15 121 21 95 6z m4470 -35 c-13 -17 -39 -23
-154 -34 -92 -10 -85 8 12 27 164 32 163 32 142 7z m20 -65 c0 -5 -12 -12 -27
-15 -49 -9 -183 -18 -183 -12 0 3 21 12 48 20 53 16 162 21 162 7z m-46 -80
c16 -25 -176 -40 -235 -18 l-34 12 65 6 c109 9 199 9 204 0z m-12 -73 c-12
-12 -172 -18 -172 -6 0 11 31 16 110 17 56 1 71 -2 62 -11z m-4407 -28 c9 -15
-20 -23 -231 -69 -271 -58 -329 -81 -483 -186 -45 -30 -96 -58 -113 -63 -30
-8 -34 -6 -50 22 -21 39 -16 46 33 46 26 0 65 13 112 36 121 62 294 123 462
163 139 34 233 56 257 60 4 0 10 -4 13 -9z m2530 -15 c0 -12 -12 -24 -32 -32
-28 -11 -33 -11 -33 2 0 18 40 57 55 52 5 -2 10 -12 10 -22z m1865 -12 c46
-19 -196 -31 -262 -13 -21 6 -39 14 -42 18 -5 8 283 4 304 -5z m-2569 -56 c30
-19 53 -87 28 -87 -5 0 -27 11 -47 25 -20 14 -45 25 -54 25 -13 0 -18 8 -18
31 0 30 1 31 36 24 20 -3 45 -11 55 -18z m2484 -17 c10 -17 -86 -16 -115 1
-10 5 7 8 47 9 34 0 65 -4 68 -10z m16 -67 c13 -15 9 -16 -50 -10 -87 7 -105
27 -24 27 44 0 64 -4 74 -17z m-301 -49 c0 -9 -7 -14 -17 -12 -25 5 -28 28 -4
28 12 0 21 -6 21 -16z m184 -5 c42 -6 83 -17 93 -25 16 -12 14 -13 -18 -14
-49 0 -129 16 -170 34 -34 14 -34 14 -7 15 15 1 61 -4 102 -10z m89 -85 c64
-33 8 -39 -118 -12 -43 9 -105 33 -105 41 0 9 200 -18 223 -29z m-5286 -20 c3
-9 -5 -26 -19 -42 -14 -15 -28 -34 -31 -42 -4 -10 -6 -7 -6 7 -1 26 29 93 41
93 5 0 11 -7 15 -16z m632 -44 c-47 -25 -171 -71 -176 -66 -7 7 70 50 122 67
70 24 100 24 54 -1z m4543 -6 c15 -3 31 -11 37 -18 15 -18 -125 6 -142 24 -12
12 19 10 105 -6z m-4741 -25 c-13 -11 -27 -17 -30 -13 -7 7 28 34 43 34 6 -1
0 -10 -13 -21z m3872 -169 c81 -76 294 -314 384 -430 151 -194 279 -435 423
-797 53 -133 103 -250 111 -259 16 -19 49 -162 42 -181 -10 -25 -41 -12 -78
32 -28 34 -35 52 -31 69 11 43 -14 184 -50 288 -47 136 -147 341 -218 451 -32
49 -84 144 -116 210 -80 166 -172 279 -467 567 -221 217 -232 230 -159 179 44
-30 115 -88 159 -129z m785 150 c75 -18 169 -56 160 -65 -5 -6 -218 54 -247
70 -36 20 -10 18 87 -5z m-4332 -5 c-10 -8 -42 -22 -70 -31 -28 -9 -66 -25
-83 -35 -34 -19 -45 -11 -17 12 15 12 158 66 179 68 6 0 1 -6 -9 -14z m99 -24
c-21 -19 -155 -74 -163 -66 -3 3 22 16 54 30 32 15 73 32 89 40 40 19 43 18
20 -4z m125 -29 c0 -5 -23 -14 -52 -21 -55 -15 -186 -67 -310 -124 -43 -20
-78 -32 -78 -26 0 23 125 88 237 123 65 21 129 41 143 46 33 11 60 12 60 2z
m4093 -12 c99 -26 119 -34 141 -58 18 -21 17 -21 -55 2 -93 30 -126 42 -152
61 -28 19 -21 19 66 -5z m166 -157 c2 -2 2 -6 -2 -9 -20 -20 -157 45 -171 81
-4 11 125 -43 173 -72z m-2440 19 c29 -62 46 -70 80 -38 147 137 527 101 576
-54 5 -16 10 -17 34 -9 21 7 39 28 62 72 l34 62 3 -45 c3 -38 -3 -58 -39 -127
-45 -83 -47 -113 -6 -75 26 24 38 19 61 -25 22 -43 20 -129 -4 -244 -31 -147
-26 -171 28 -133 31 21 27 8 -8 -33 -37 -41 -37 -51 -5 -78 l25 -20 -20 -32
c-25 -41 -39 -42 -53 -3 -11 29 -14 31 -52 24 -22 -3 -42 -8 -44 -10 -2 -2 4
-21 13 -43 l18 -38 -47 -64 c-73 -98 -97 -154 -105 -239 -7 -70 -10 -77 -45
-107 -31 -27 -95 -60 -95 -49 0 2 10 25 21 52 24 54 56 94 76 94 7 0 15 12 19
28 3 15 10 37 15 50 5 13 9 24 9 26 0 2 -23 7 -52 10 -81 11 -146 43 -150 73
-2 15 -11 31 -21 37 -15 9 -21 7 -33 -9 -13 -18 -11 -22 29 -57 25 -20 50 -51
57 -68 12 -28 11 -33 -6 -49 -22 -22 -70 -35 -78 -22 -3 5 3 20 14 34 39 49
15 65 -30 22 -24 -23 -30 -25 -54 -13 -25 11 -27 16 -22 52 3 23 10 99 16 169
10 125 31 204 59 221 7 5 19 -11 31 -41 31 -74 33 -76 92 -94 105 -31 187 -43
203 -29 18 15 20 40 2 40 -8 0 -12 15 -12 43 0 23 -4 57 -8 75 -11 41 4 42 73
5 50 -28 51 -28 66 -8 13 16 15 36 10 95 -3 41 -10 89 -15 105 -8 26 -9 22
-10 -31 -1 -70 -7 -81 -33 -57 -18 16 -19 16 -24 -3 -4 -16 -12 -18 -47 -16
-34 3 -58 -5 -129 -42 -104 -55 -135 -58 -151 -17 -7 19 -20 31 -36 34 -30 6
-46 -5 -67 -46 -13 -24 -20 -28 -42 -22 -60 14 -135 57 -187 106 -56 53 -66
69 -41 69 8 0 24 9 37 20 23 18 23 19 4 20 -11 0 -29 -6 -40 -14 -11 -7 -29
-16 -40 -20 -19 -6 -20 -1 -19 106 2 103 3 113 24 128 15 11 19 19 11 24 -20
12 -12 42 18 69 27 24 28 28 19 64 -5 21 -12 64 -15 97 -7 74 11 73 46 -2z
m2234 14 c123 -60 153 -84 65 -53 -76 27 -193 97 -162 97 3 0 47 -20 97 -44z
m-4083 9 c0 -2 -37 -21 -82 -43 -46 -21 -116 -57 -157 -81 -41 -23 -75 -40
-77 -38 -8 8 56 58 118 92 89 48 198 87 198 70z m4160 -130 c48 -25 118 -90
107 -101 -5 -6 -160 98 -192 129 -15 14 32 -2 85 -28z m114 -3 c-16 -4 -44 15
-44 29 0 4 13 0 30 -9 21 -12 25 -18 14 -20z m-152 -81 c68 -63 167 -181 151
-181 -4 0 -69 63 -143 139 -135 139 -140 163 -8 42z m-4207 59 c-20 -22 -164
-104 -171 -97 -7 7 178 127 185 121 2 -2 -4 -13 -14 -24z m959 -57 c-15 -21
-85 -96 -154 -168 -153 -159 -183 -195 -250 -310 -79 -135 -132 -216 -138
-211 -6 6 66 138 126 231 67 105 183 245 316 382 116 121 157 152 100 76z
m-949 -19 c-49 -43 -174 -128 -181 -122 -6 7 34 41 121 102 91 63 119 72 60
20z m73 -100 c-45 -43 -68 -54 -68 -34 0 11 103 90 110 83 3 -2 -16 -24 -42
-49z m72 -48 c0 -2 -19 -19 -42 -37 -40 -31 -39 -25 1 24 12 15 41 24 41 13z
m4150 -91 c82 -83 99 -114 43 -80 -28 17 -150 165 -135 165 4 0 45 -38 92 -85z
m-4137 13 c-5 -7 -38 -51 -73 -98 -90 -121 -122 -160 -132 -160 -5 0 19 37 53
83 74 97 148 187 156 187 3 0 1 -6 -4 -12z m166 -144 c-31 -33 -37 -22 -8 14
13 16 26 25 28 20 2 -5 -7 -20 -20 -34z m-159 -54 c-42 -66 -51 -58 -9 9 17
29 34 50 36 47 3 -3 -9 -28 -27 -56z m-36 38 c-21 -37 -47 -69 -51 -64 -6 6
44 76 53 76 3 0 2 -6 -2 -12z m243 -35 c-15 -27 -57 -72 -57 -60 0 10 63 97
68 93 2 -2 -3 -17 -11 -33z m1508 10 c14 -21 15 -30 6 -45 -17 -28 -13 -87 9
-123 17 -27 28 -33 68 -38 26 -4 59 -9 73 -13 23 -5 29 -1 40 22 23 45 39 42
39 -9 0 -104 -114 -186 -219 -157 -33 9 -42 17 -59 58 -47 109 -54 230 -18
300 20 39 38 41 61 5z m2394 -35 c51 -62 117 -175 108 -184 -8 -8 -70 71 -124
160 -29 47 -49 86 -44 86 5 0 32 -28 60 -62z m-1799 -34 c26 -67 -10 -116 -72
-98 -37 11 -61 43 -48 64 8 12 13 11 34 -9 33 -31 50 -19 43 30 -4 34 -2 39
14 39 12 0 23 -10 29 -26z m-496 -48 c9 3 16 10 16 15 0 5 5 9 10 9 16 0 12
-37 -6 -54 -8 -9 -24 -16 -35 -16 -22 0 -59 34 -59 54 0 13 4 12 29 0 16 -8
36 -11 45 -8z m2367 -134 c17 -29 29 -55 26 -58 -8 -9 -58 58 -88 120 l-30 61
31 -35 c16 -19 44 -59 61 -88z m-3960 65 c-5 -14 -15 -28 -22 -32 -12 -8 -12
-7 10 38 17 33 25 29 12 -6z m1142 -1 c79 -35 53 -49 -39 -21 -62 19 -64 19
-64 -3 0 -10 35 -54 78 -99 86 -87 89 -94 162 -330 40 -130 81 -183 141 -183
46 0 53 -11 69 -118 13 -85 35 -136 66 -153 21 -11 36 -10 92 4 37 9 92 21
123 27 l57 11 37 90 c44 106 99 192 156 244 39 35 130 85 157 85 6 0 12 6 12
14 0 21 19 30 35 16 12 -10 32 -3 102 32 49 25 126 60 173 78 47 18 89 36 94
41 16 14 -41 40 -81 37 -30 -2 -38 -7 -38 -22 0 -16 -23 -28 -120 -63 -66 -23
-132 -45 -146 -48 l-27 -6 19 68 c24 86 49 143 63 143 6 0 28 -12 49 -26 36
-24 41 -25 87 -14 31 8 77 9 125 5 50 -5 90 -3 119 5 90 25 203 -36 275 -149
35 -55 83 -177 107 -278 20 -81 29 -94 47 -68 13 16 30 -3 199 -226 193 -255
278 -377 278 -402 0 -23 -77 -54 -165 -67 -44 -6 -99 -16 -122 -22 -51 -12
-61 -7 -165 88 -39 36 -83 71 -98 79 -22 11 -26 19 -23 40 4 19 1 25 -12 25
-14 0 -15 3 -6 14 9 11 6 20 -12 42 -32 40 -147 213 -147 223 0 4 11 18 25 31
29 27 31 46 10 70 -14 15 -14 18 0 30 8 7 15 17 15 22 0 20 -50 -20 -136 -109
-73 -74 -93 -102 -97 -131 -7 -41 -55 -92 -87 -92 -12 0 -20 -7 -20 -18 0 -9
-41 -59 -90 -111 -75 -78 -94 -92 -113 -87 -47 14 -134 26 -188 26 -31 0 -78
7 -105 15 -27 8 -51 11 -55 7 -4 -4 -9 -26 -13 -50 -6 -42 -6 -43 16 -36 89
28 175 31 284 9 66 -14 77 -14 96 -1 15 11 25 12 34 6 8 -7 16 -3 27 13 8 13
45 53 81 89 68 68 90 67 35 -2 -32 -40 -33 -66 -4 -90 20 -17 42 2 66 55 21
45 25 125 8 142 -9 9 -5 18 14 37 55 55 58 35 23 -147 -46 -238 -102 -402
-135 -393 -9 3 -56 10 -106 17 -49 6 -109 19 -132 29 -44 19 -55 35 -73 106
-5 22 -18 48 -29 58 -18 16 -19 15 -26 -41 -4 -32 -9 -86 -10 -121 -1 -34 -5
-65 -8 -69 -4 -3 -22 9 -42 26 -45 39 -63 31 -35 -15 15 -27 20 -53 20 -107 0
-48 5 -80 15 -94 14 -20 12 -22 -73 -58 -157 -68 -216 -102 -262 -152 l-45
-48 50 -3 c32 -2 80 6 134 23 46 14 86 23 89 21 11 -11 -82 -57 -153 -76 -196
-52 -182 -45 -177 -85 4 -29 8 -35 28 -35 13 0 24 -4 24 -10 0 -5 -9 -10 -20
-10 -25 0 -26 -27 -4 -58 9 -13 14 -34 11 -48 -11 -57 82 -70 218 -30 44 13
82 22 85 19 12 -12 -54 -46 -145 -74 -140 -44 -139 -43 -120 -79 24 -46 52
-60 120 -60 49 0 74 7 130 35 39 19 80 42 93 51 21 16 22 16 16 -2 -10 -28
-43 -61 -99 -102 -85 -61 -105 -83 -105 -117 0 -19 8 -39 20 -50 19 -17 21
-17 47 0 16 10 38 27 50 38 51 46 30 -23 -24 -77 -62 -64 -100 -84 -144 -79
-31 5 -47 1 -69 -16 -54 -39 -63 -34 -302 171 -123 105 -278 236 -345 291
l-123 99 6 38 c5 27 -3 68 -24 142 -36 119 -47 180 -38 204 5 12 42 -35 137
-177 165 -245 250 -358 269 -359 9 0 26 -7 38 -16 13 -9 26 -13 29 -10 13 13
-52 119 -128 207 -84 96 -111 120 -89 78 l13 -24 -22 20 c-43 37 -93 116 -157
243 -35 70 -64 133 -64 140 0 21 14 13 35 -21 11 -18 30 -33 43 -35 23 -4 29
-16 12 -27 -5 -3 -10 -10 -10 -15 0 -10 63 -50 79 -50 18 0 13 25 -9 45 -12
10 -19 24 -16 31 6 15 -20 39 -57 53 -24 9 -27 16 -27 53 0 24 -7 81 -15 128
-8 47 -15 102 -15 123 0 37 13 50 24 22 3 -8 10 -15 16 -15 19 0 0 69 -61 220
-60 150 -83 248 -77 336 l3 49 82 -82 c45 -46 85 -83 90 -83 4 0 25 -4 46 -9
35 -8 37 -8 37 16 0 17 -9 29 -32 41 -17 9 -41 26 -52 37 -12 11 -28 20 -36
20 -10 0 -54 78 -122 215 -67 135 -120 227 -140 247 -113 109 -108 106 -124
93 -8 -7 -16 -11 -17 -9 -2 2 -14 19 -26 37 -32 45 -61 37 -127 -33 -28 -30
-59 -55 -69 -55 -14 0 -16 -5 -10 -27 13 -54 28 -60 85 -29 51 28 83 28 94 1
5 -15 -21 -35 -46 -35 -8 0 -70 -25 -138 -56 -238 -108 -462 -170 -714 -198
-98 -11 -141 -21 -183 -42 l-54 -26 -23 21 c-30 28 -38 27 -30 -5 7 -26 6 -26
-17 -11 -19 13 -55 16 -179 16 -256 0 -540 44 -852 132 -266 74 -302 90 -241
105 25 7 25 8 8 20 -26 19 -97 17 -184 -6 -90 -24 -122 -25 -163 -4 -24 12
-29 21 -25 40 2 13 3 24 2 24 -15 0 -88 -53 -113 -81 -39 -44 -134 -89 -207
-96 -30 -3 -55 -3 -55 1 0 4 7 20 15 35 17 35 61 61 155 95 88 32 120 49 143
74 17 19 17 20 -11 25 -16 3 -50 22 -76 42 -60 45 -85 55 -144 55 -67 0 -151
-23 -267 -70 -97 -40 -235 -83 -242 -76 -2 2 11 17 28 34 18 18 71 47 123 67
50 20 105 48 123 61 22 17 45 24 76 24 32 0 69 12 135 45 133 66 166 62 335
-39 119 -71 108 -68 442 -103 172 -18 541 -22 845 -10 227 9 267 4 262 -33 -4
-21 -2 -22 35 -14 21 4 78 8 126 9 l88 1 32 36 c21 23 55 45 97 61 36 14 120
50 187 80 165 75 257 103 409 123 163 21 221 37 276 76 23 18 52 32 63 32 11
1 63 27 116 59 186 112 320 138 442 83z m2798 -213 c55 -100 65 -132 22 -75
-19 26 -113 202 -121 227 -9 29 50 -62 99 -152z m-2302 -208 c11 -35 27 -77
35 -93 18 -35 65 -57 102 -48 23 6 26 11 20 36 -5 27 -2 32 34 50 52 27 80 58
80 91 0 15 7 29 16 33 27 10 54 7 54 -7 0 -14 -65 -126 -130 -224 -35 -52 -35
-53 -87 -53 -60 0 -99 13 -131 43 -20 19 -22 28 -17 72 5 41 2 61 -19 108 -14
32 -26 70 -26 85 l1 27 24 -28 c13 -15 33 -56 44 -92z m-1063 -90 c9 -13 14
-30 12 -36 -2 -7 -14 4 -26 24 -24 41 -12 51 14 12z m-3211 -117 c-10 -30 -42
-65 -67 -71 -17 -5 -19 -2 -13 21 11 45 34 72 61 72 22 0 24 -3 19 -22z m303
-162 c3 -12 -1 -17 -10 -14 -7 3 -15 13 -16 22 -3 12 1 17 10 14 7 -3 15 -13
16 -22z m-269 -52 c23 -29 28 -69 9 -80 -18 -11 -48 34 -48 72 0 41 11 43 39
8z m121 -30 c0 -18 -26 -18 -33 0 -3 8 -3 16 0 19 9 10 33 -5 33 -19z m2360
-152 c-6 -47 -13 -88 -14 -90 -2 -2 -7 9 -10 24 -7 27 24 189 32 166 2 -7 -1
-52 -8 -100z m3486 62 c26 -39 12 -34 -26 9 -27 31 -30 37 -12 28 12 -6 29
-23 38 -37z m-3546 -81 c0 -16 -7 -63 -15 -106 -8 -43 -15 -105 -15 -138 l0
-59 32 2 c32 3 32 2 47 -61 14 -60 14 -64 -4 -77 -23 -17 -67 -18 -83 -2 -17
17 -15 57 3 64 20 8 19 27 -4 48 -31 28 -34 77 -10 209 12 67 23 128 25 135 6
23 24 12 24 -15z m2992 -45 c31 -40 91 -118 133 -173 43 -55 95 -118 117 -141
l39 -41 -47 -41 c-58 -49 -160 -101 -272 -136 -121 -38 -154 -42 -174 -19 -16
18 -16 23 7 94 26 84 67 272 91 417 13 85 24 111 44 112 3 0 31 -33 62 -72z
m775 -190 c46 -76 105 -160 129 -187 40 -44 44 -54 44 -100 l0 -51 -70 -35
c-139 -70 -323 -136 -740 -264 -237 -73 -276 -82 -304 -71 -18 8 -17 9 12 9
29 1 32 4 32 31 l0 30 -42 -21 c-63 -32 -129 -87 -207 -173 l-70 -77 -78 -4
c-58 -3 -116 -16 -223 -50 -107 -35 -166 -48 -225 -51 l-80 -5 35 19 c19 11
85 34 145 51 192 55 271 95 245 126 -17 20 -49 19 -107 -4 -62 -24 -231 -68
-306 -79 -97 -15 -50 12 136 77 110 39 183 71 217 95 38 27 57 35 75 30 31 -8
33 9 3 30 -28 20 -38 20 -38 1 0 -12 -13 -15 -59 -15 -32 0 -103 -12 -157 -26
-116 -31 -177 -44 -183 -38 -7 7 44 45 94 69 28 13 104 38 170 55 184 48 257
86 291 153 15 27 14 28 -20 42 -20 8 -38 15 -42 15 -25 0 -74 36 -83 61 -12
34 -13 34 84 14 38 -8 98 -15 133 -15 55 0 68 -4 100 -30 20 -16 64 -42 96
-59 l59 -30 51 30 c83 49 118 62 181 67 54 4 63 8 91 41 31 35 32 36 52 18 24
-22 26 -21 142 58 84 57 164 82 226 70 21 -3 34 -2 34 5 0 5 -10 10 -22 10
-27 0 -55 16 -46 26 4 4 59 9 123 12 l115 5 0 39 c0 44 -11 68 -80 175 -28 41
-50 81 -50 87 1 16 22 -15 117 -166z m-420 -240 c-6 -16 -91 -65 -86 -50 5 12
82 71 88 66 2 -2 1 -9 -2 -16z m-947 -210 c27 -17 31 -23 18 -26 -9 -2 -34 8
-55 22 -29 20 -33 26 -18 26 11 0 36 -10 55 -22z m-1303 -12 c7 -6 15 -26 19
-44 6 -31 6 -32 -24 -26 -30 6 -32 4 -58 -50 -14 -31 -30 -56 -35 -56 -13 0
-12 5 18 107 25 82 30 92 48 87 11 -3 26 -11 32 -18z m-224 -504 l19 -32 -32
0 c-30 0 -32 -2 -28 -30 6 -38 -2 -38 -24 1 -10 17 -22 27 -28 24 -18 -11 -11
5 18 41 32 41 49 40 75 -4z m1646 24 c-91 -80 -252 -196 -271 -196 -12 0 133
149 172 176 20 14 49 24 69 24 19 0 32 -2 30 -4z m-1401 -64 c2 -6 -1 -12 -6
-12 -14 0 -62 40 -62 52 0 13 62 -23 68 -40z m-151 -194 c44 -51 186 -223 316
-383 129 -159 272 -330 316 -380 45 -49 81 -98 81 -109 0 -10 22 -42 48 -71
27 -29 70 -88 97 -131 91 -148 138 -193 222 -212 61 -14 90 -6 96 28 5 24 10
27 45 27 21 0 49 7 63 16 22 15 29 14 90 -7 53 -18 155 -66 179 -84 2 -2 -2
-7 -10 -13 -8 -5 -69 -8 -135 -7 -102 2 -124 0 -147 -15 -41 -28 -44 -48 -9
-79 38 -34 102 -52 156 -44 42 7 67 20 128 69 27 21 76 39 204 72 92 24 169
42 171 40 11 -10 -151 -94 -406 -209 l-103 -47 -24 29 c-21 25 -34 30 -92 36
-147 15 -236 50 -314 123 -43 40 -48 42 -57 26 -10 -17 -12 -17 -35 5 -27 26
-39 20 -31 -15 6 -23 3 -22 -45 14 -28 21 -51 44 -51 51 0 15 -13 15 -28 0
-10 -10 -15 -10 -22 2 -23 35 -12 50 35 50 95 0 72 54 -118 277 -73 87 -86
113 -52 113 40 0 21 48 -72 176 -72 101 -268 342 -398 489 -115 131 -205 240
-205 249 0 24 38 -7 107 -86z m1533 17 c-14 -14 -69 -60 -125 -102 l-100 -76
50 53 c51 53 172 150 189 150 5 0 -1 -11 -14 -25z m200 -119 c0 -20 -19 -31
-32 -18 -6 6 -7 15 -4 21 10 16 36 13 36 -3z m-261 -62 c-28 -30 -110 -86
-117 -79 -8 8 113 103 132 105 5 0 -1 -12 -15 -26z m-1442 -224 c48 -68 126
-191 197 -307 4 -7 5 -13 2 -13 -11 0 -215 309 -271 410 -18 32 15 -8 72 -90z
m583 -21 c103 -85 146 -130 175 -179 5 -8 -11 1 -35 20 -51 39 -293 276 -270
264 8 -5 67 -52 130 -105z m563 35 c-32 -18 -64 -34 -72 -34 -18 0 43 47 84
65 55 24 47 3 -12 -31z m77 -9 c-18 -22 -88 -57 -103 -52 -6 2 15 19 48 39 62
36 77 40 55 13z m-699 -63 c35 -22 253 -232 242 -232 -17 0 -65 39 -172 143
-107 102 -127 127 -70 89z m-748 -32 c3 -14 1 -20 -6 -17 -7 2 -14 14 -15 26
-4 28 13 20 21 -9z m1314 -66 c25 -25 42 -49 39 -52 -8 -7 -118 69 -124 86 -2
7 5 12 19 12 14 0 40 -18 66 -46z m602 27 c13 -23 -3 -83 -26 -102 -14 -12
-15 -11 -10 6 3 11 8 41 12 68 7 52 10 55 24 28z m-1998 -58 c-57 -87 -80
-101 -43 -26 27 53 69 100 79 89 2 -2 -14 -30 -36 -63z m2092 0 c61 -89 117
-251 161 -463 20 -98 21 -110 7 -105 -9 4 -65 20 -126 36 -67 18 -123 40 -144
56 l-34 26 6 126 c4 69 13 154 22 189 16 68 61 172 74 172 5 0 20 -17 34 -37z
m-1892 -183 c51 -114 259 -663 254 -668 -7 -7 -83 163 -130 293 -27 72 -85
220 -130 330 -45 110 -85 211 -89 225 -10 36 46 -69 95 -180z m489 94 c53 -67
50 -88 -4 -31 -37 40 -89 130 -63 108 10 -7 40 -42 67 -77z m-627 -2 c-11 -14
-24 -27 -30 -29 -17 -6 -4 32 20 58 28 30 36 6 10 -29z m1602 7 c7 -11 -22
-99 -32 -99 -14 0 -93 73 -93 85 0 10 16 15 53 18 28 2 55 4 59 5 4 1 10 -3
13 -9z m-1575 -54 c-30 -32 -37 -25 -14 14 12 20 22 27 28 21 6 -6 2 -18 -14
-35z m1854 -162 c-17 -113 -34 -141 -34 -57 0 39 10 92 36 199 l8 30 4 -30 c2
-16 -4 -80 -14 -142z m-1951 133 c38 -16 72 -51 86 -88 7 -19 15 -25 28 -22
15 4 27 -11 60 -73 75 -142 118 -316 129 -518 5 -81 10 -113 21 -122 14 -10
10 -19 -24 -60 -22 -26 -52 -65 -67 -85 l-28 -37 32 9 c42 12 87 47 169 132
l67 71 60 -45 c84 -63 155 -104 353 -203 205 -103 202 -102 361 -24 138 67
190 83 244 75 25 -4 56 -16 71 -28 l26 -20 -73 -48 c-77 -50 -148 -118 -192
-185 -19 -30 -26 -35 -26 -20 0 11 16 44 35 72 60 90 35 111 -30 26 -49 -65
-75 -143 -84 -253 -7 -89 -8 -93 -20 -65 -8 19 -11 58 -8 109 4 78 4 79 -15
57 -23 -30 -24 -127 0 -196 14 -42 22 -51 44 -53 23 -3 28 1 33 30 3 18 4 50
1 70 -6 51 12 59 44 20 15 -18 34 -32 43 -32 12 0 17 -9 17 -29 0 -22 10 -37
40 -61 37 -29 42 -31 74 -19 26 9 38 22 50 52 l15 40 64 -5 c112 -9 201 -78
231 -179 18 -61 20 -97 5 -158 -8 -36 -7 -47 6 -61 15 -16 15 -25 -4 -101 -26
-112 -64 -215 -118 -322 -37 -75 -47 -87 -63 -82 -23 7 -25 2 -8 -24 10 -17 6
-28 -26 -77 -109 -164 -296 -281 -538 -338 -252 -60 -479 -61 -748 -3 -186 40
-327 58 -387 50 l-40 -5 -6 47 c-4 26 -7 111 -7 189 0 212 -17 403 -47 534
-14 64 -26 146 -26 182 0 83 29 159 176 460 151 311 178 370 168 370 -5 0 -15
-17 -22 -37 -15 -48 -27 -63 -45 -56 -8 3 -14 1 -14 -4 0 -6 -39 -75 -86 -154
-98 -163 -157 -282 -174 -352 -10 -36 -18 -49 -35 -53 -14 -4 -26 -16 -30 -32
-3 -15 -26 -62 -51 -104 -24 -43 -44 -85 -44 -94 0 -12 -6 -15 -26 -10 -23 6
-25 5 -19 -16 4 -13 14 -36 22 -52 l15 -28 39 38 c47 46 47 45 84 -68 59 -185
53 -488 -16 -778 -13 -55 -16 -86 -9 -88 16 -6 11 -39 -7 -46 -28 -11 6 -27
42 -20 l30 5 -8 -163 c-8 -150 -2 -287 19 -423 6 -33 4 -38 -7 -28 -15 15 -49
17 -49 4 0 -15 30 -41 46 -41 61 0 -80 -83 -178 -104 -36 -8 -35 -21 2 -36 36
-15 77 -8 147 25 29 13 54 21 56 17 3 -4 7 -23 11 -43 3 -19 17 -50 31 -69
l24 -33 -29 -37 c-16 -21 -45 -49 -64 -64 -39 -30 -153 -86 -175 -86 -11 0
-11 -3 -1 -15 20 -25 41 -18 155 50 60 36 115 65 122 65 6 0 19 -23 28 -51 22
-64 13 -85 -51 -128 -52 -34 -99 -50 -168 -55 -27 -2 -56 -13 -73 -26 -15 -12
-40 -24 -55 -27 -26 -5 -28 -9 -22 -38 5 -31 3 -35 -58 -78 -151 -107 -209
-122 -376 -100 -97 14 -131 15 -165 6 -23 -6 -43 -10 -45 -9 -7 7 71 146 104
185 33 38 40 42 68 36 17 -4 49 -6 71 -5 166 9 179 7 264 -36 45 -23 81 -39
81 -35 0 16 -69 72 -115 92 -38 17 -69 23 -132 23 -81 0 -82 0 -65 19 9 11 43
37 75 59 31 21 57 43 57 48 0 6 5 10 11 10 5 0 7 -4 4 -10 -3 -5 -5 -10 -3
-10 2 -1 39 -7 83 -15 91 -17 181 -19 189 -6 8 12 -166 51 -229 51 -45 0 -46
21 -2 65 39 39 97 58 134 44 37 -14 53 4 53 62 0 27 4 49 9 49 5 0 28 -7 51
-15 48 -17 90 -20 90 -6 0 18 -51 49 -100 61 -27 6 -55 19 -62 27 -8 11 -15
73 -19 197 -4 99 -12 204 -18 231 -6 28 -48 157 -92 288 -89 266 -130 424
-153 584 -21 152 -29 303 -18 333 9 22 10 19 15 -30 4 -30 9 -109 12 -175 4
-66 12 -150 20 -186 14 -70 55 -163 62 -141 3 6 -5 59 -17 116 -21 98 -23 149
-6 187 4 10 0 23 -11 34 -17 17 -16 19 5 33 18 12 20 18 11 34 -6 12 -8 37 -5
58 4 23 1 43 -8 55 -11 15 -11 22 0 44 8 14 14 34 14 43 0 32 23 68 47 74 28
8 29 23 2 76 -12 24 -19 53 -17 70 5 31 -17 52 -49 46 -35 -6 -84 168 -69 246
4 19 18 51 32 71 19 29 26 55 31 116 4 59 11 83 25 96 15 13 21 14 31 4 9 -10
8 -15 -6 -26 -12 -8 -14 -15 -8 -20 16 -9 31 3 31 25 0 10 7 26 17 35 12 13
18 46 24 148 18 320 95 566 248 791 13 20 18 39 14 62 -4 25 0 38 19 57 13 13
23 28 21 33 -2 5 11 17 27 26 20 11 42 41 67 92 37 75 38 76 76 76 20 0 52 -6
70 -14z m135 -22 c-24 -24 -44 -7 -22 17 12 13 21 16 28 9 7 -7 5 -15 -6 -26z
m36 -33 c3 -5 -1 -14 -8 -20 -16 -13 -32 2 -21 19 8 12 22 13 29 1z m1846
-312 c47 -35 60 -40 92 -36 21 3 40 2 43 -3 2 -4 25 -13 51 -19 49 -13 54 -30
12 -45 -53 -19 -96 2 -239 116 -54 44 -19 32 41 -13z m823 -62 c18 -8 38 -21
45 -30 11 -13 10 -17 -6 -26 -16 -8 -31 -5 -73 18 l-52 28 -86 -17 c-112 -23
-161 -30 -161 -24 0 7 67 35 120 50 61 17 173 17 213 1z m-418 -77 c-22 -11
-145 -69 -273 -129 -128 -61 -308 -148 -399 -195 -92 -47 -169 -84 -171 -82
-13 14 477 263 708 360 147 62 222 87 135 46z m-1571 -184 c76 -78 84 -84 131
-89 28 -3 91 -24 141 -46 128 -57 176 -67 263 -53 38 7 85 12 103 12 30 0 31
-1 16 -16 -9 -10 -45 -19 -89 -24 -53 -6 -99 -20 -163 -49 -92 -43 -166 -62
-166 -43 0 22 41 41 76 35 29 -5 34 -3 34 15 0 32 -47 63 -85 56 -33 -6 -46 2
-230 143 -53 40 -125 119 -125 136 0 17 19 1 94 -77z m-474 -16 c-11 -20 -30
-28 -30 -12 0 11 22 32 32 32 5 0 4 -9 -2 -20z m1960 -96 c18 -78 18 -79 -1
-56 -20 25 -49 111 -49 146 0 45 32 -13 50 -90z m215 11 c52 -79 52 -80 1 -99
-51 -19 -60 -17 -80 22 -21 42 -27 95 -15 130 10 30 12 31 34 16 14 -9 40 -40
60 -69z m-267 -27 c11 -29 23 -64 27 -78 l7 -25 -20 20 c-21 21 -56 135 -42
135 5 0 17 -24 28 -52z m-154 15 c18 -36 67 -185 62 -190 -7 -8 -44 53 -59 97
-17 53 -30 120 -23 120 3 0 12 -12 20 -27z m104 -20 c23 -61 31 -93 23 -93 -9
0 -26 36 -40 88 -12 39 2 43 17 5z m632 -20 c0 -27 -18 -12 -22 19 -5 28 -4
29 9 13 7 -11 13 -25 13 -32z m-782 -2 c17 -30 61 -152 62 -170 0 -7 -37 44
-50 69 -19 36 -49 140 -41 140 4 0 17 -17 29 -39z m131 -41 c23 -92 23 -96 7
-80 -13 13 -47 118 -46 145 1 19 30 -29 39 -65z m597 -8 c-9 -8 -14 0 -21 33
l-6 30 16 -28 c9 -16 14 -31 11 -35z m-818 -2 c12 -24 22 -61 22 -82 0 -27 4
-38 15 -38 8 0 15 -9 15 -20 0 -11 -3 -20 -8 -20 -13 0 -35 44 -62 128 -30 89
-20 106 18 32z m71 -42 c29 -87 2 -68 -31 21 -23 63 -24 70 -8 56 10 -9 28
-44 39 -77z m-90 -41 c11 -31 23 -69 26 -84 6 -27 6 -28 -11 -8 -18 22 -78
146 -88 185 -14 48 50 -33 73 -93z m711 29 c22 -66 27 -102 10 -76 -6 8 -18
40 -26 70 -9 30 -19 62 -22 70 -3 11 -2 12 6 5 6 -6 21 -37 32 -69z m-789 -2
c17 -36 28 -68 25 -71 -6 -7 -53 77 -61 110 -12 48 5 29 36 -39z m-19 -63 c21
-46 37 -86 34 -88 -10 -10 -106 161 -106 188 0 28 36 -22 72 -100z m-83 44
c30 -42 121 -222 121 -240 0 -14 -42 29 -67 68 -31 49 -104 217 -94 217 4 0
22 -20 40 -45z m9 -142 c38 -73 66 -133 63 -133 -7 0 -56 77 -63 100 -3 9 -29
56 -57 105 -28 49 -51 94 -51 100 1 22 44 -46 108 -172z m-107 115 c21 -41 21
-60 1 -35 -18 21 -44 90 -32 82 5 -3 20 -24 31 -47z m698 -52 c6 -8 15 -33 19
-57 7 -36 12 -44 29 -42 15 2 25 -8 38 -40 50 -116 67 -153 82 -169 14 -15 12
-22 -20 -75 -19 -32 -55 -98 -80 -148 -25 -49 -57 -107 -71 -128 l-26 -38 15
-87 c9 -54 23 -98 36 -116 21 -28 21 -29 5 -130 -20 -120 -46 -367 -45 -416
l1 -35 14 44 c7 24 23 125 34 225 12 99 25 197 30 216 6 20 9 79 8 130 -1 52
2 110 6 128 23 98 51 -46 43 -221 -23 -472 -41 -600 -120 -837 -8 -25 -23
-103 -32 -175 -21 -164 -68 -405 -101 -513 -25 -82 -26 -83 -70 -103 -25 -10
-56 -19 -69 -19 -31 0 -39 -14 -23 -40 12 -19 20 -21 85 -18 l71 3 11 -37 c6
-20 32 -63 56 -95 71 -91 102 -136 109 -159 6 -20 2 -22 -56 -29 -35 -4 -83
-14 -106 -22 -39 -13 -46 -13 -61 1 -9 8 -52 32 -95 51 -86 40 -151 93 -160
130 -5 18 -13 25 -31 25 -14 0 -25 3 -25 8 0 12 65 141 71 141 4 1 32 -20 63
-46 l56 -47 -25 -26 c-39 -41 -32 -50 34 -50 55 0 59 2 66 27 5 21 1 31 -19
47 -13 12 -36 45 -51 74 -17 35 -35 56 -53 63 -40 15 -72 49 -72 77 0 28 29
132 37 132 3 0 17 -9 33 -20 29 -21 40 -18 40 11 0 22 -42 56 -78 64 l-27 5 1
243 c1 145 6 276 14 323 12 77 12 83 -23 239 -40 179 -56 288 -50 355 17 202
79 470 108 470 14 0 54 -43 87 -92 l25 -38 22 31 23 31 -23 31 c-77 104 -150
210 -181 262 -44 74 -98 181 -98 195 0 5 14 10 31 10 32 0 34 5 15 51 -5 11
-1 18 12 21 13 4 22 18 26 41 5 28 12 36 35 40 31 6 71 42 71 63 0 11 71 40
150 62 55 16 166 14 179 -2z m-864 -78 c-22 -17 -68 -61 -102 -96 -35 -36 -63
-61 -63 -55 0 17 100 121 147 152 60 40 69 39 18 -1z m205 -113 c0 -7 -91 -65
-102 -65 -15 0 -8 21 17 45 21 22 85 36 85 20z m30 -64 c-8 -5 -31 -12 -50
-16 -33 -7 -34 -6 -15 9 11 8 34 15 50 15 22 0 26 -2 15 -8z m932 -239 c-21
-37 -42 -74 -45 -82 -4 -12 -6 -11 -6 3 -1 25 83 180 87 161 2 -8 -14 -45 -36
-82z m-22 83 c0 -3 -5 -14 -12 -24 -9 -15 -16 -17 -30 -10 -29 16 -22 39 12
39 17 0 30 -2 30 -5z m-228 -255 c-12 -21 -18 -25 -20 -14 -4 16 15 44 29 44
4 0 0 -13 -9 -30z m138 -77 c0 -31 -12 -63 -21 -57 -16 9 -11 74 6 74 8 0 15
-8 15 -17z m-6 -109 c8 -22 -4 -95 -16 -88 -10 6 -7 104 3 104 4 0 10 -7 13
-16z m-3293 -66 c9 -33 -6 -60 -21 -38 -5 8 -10 28 -10 43 0 35 21 32 31 -5z
m2606 -63 c-6 -20 -14 -32 -19 -27 -9 9 12 73 23 66 4 -2 2 -20 -4 -39z m-297
-676 c0 -35 -18 -56 -87 -102 -141 -93 -292 -156 -463 -193 -68 -15 -127 -19
-295 -19 -117 1 -245 6 -290 13 -181 29 -481 94 -494 108 -11 13 234 -6 396
-31 363 -54 507 -56 661 -5 48 16 66 18 80 9 38 -24 275 88 403 191 68 54 89
61 89 29z m-2280 -451 c0 -7 -9 -26 -21 -43 -11 -16 -36 -60 -55 -97 -19 -38
-36 -68 -39 -68 -8 0 25 82 61 151 34 65 54 86 54 57z m97 -109 c6 -20 15 -53
18 -73 7 -36 7 -36 -20 -26 -14 5 -42 10 -61 10 -29 0 -34 3 -34 24 0 53 38
110 69 104 9 -2 21 -19 28 -39z m-312 -109 c7 -14 16 -42 20 -63 8 -40 18 -47
34 -19 18 29 12 -2 -13 -72 l-23 -68 -20 34 c-12 18 -26 49 -32 69 -10 32 -41
192 -41 213 0 11 58 -61 75 -94z m2863 -592 c34 -26 80 -53 102 -59 22 -7 40
-18 40 -26 0 -7 10 -13 23 -13 14 0 41 -19 72 -50 49 -50 95 -69 80 -32 -4 9
-10 29 -12 44 -4 23 -1 28 22 34 15 4 57 3 93 -1 37 -4 79 -9 95 -10 27 -3 97
-49 97 -64 0 -4 -17 -13 -37 -20 -58 -21 -207 -131 -186 -138 19 -7 63 17 106
56 53 49 83 61 151 61 105 0 201 -56 281 -163 27 -35 78 -84 118 -113 62 -45
106 -90 95 -98 -2 -2 -104 19 -227 45 -223 48 -381 93 -454 131 -35 18 -40 18
-56 4 -24 -22 -38 -20 -57 9 -12 18 -15 38 -11 66 5 37 3 42 -25 59 -17 10
-84 33 -148 50 -205 56 -260 101 -260 215 0 90 -2 90 98 13z"/>
<path d="M3965 7597 c-4 -10 -5 -21 -1 -24 10 -10 18 4 13 24 -4 17 -4 17 -12
0z"/>
<path d="M6273 7318 c-18 -6 -33 -14 -33 -18 0 -17 37 -50 63 -56 24 -6 27 -4
27 21 0 20 4 26 15 21 10 -3 15 1 15 13 0 31 -30 37 -87 19z"/>
<path d="M2931 7281 c-64 -5 -72 -8 -58 -19 13 -11 38 -12 109 -7 61 5 108 3
136 -5 55 -14 141 -15 155 -1 7 7 6 15 -3 26 -18 22 -135 22 -126 0 6 -17 -7
-19 -32 -6 -26 14 -99 19 -181 12z"/>
<path d="M5117 7013 c-4 -3 -7 -20 -7 -37 0 -17 -7 -66 -15 -109 -8 -43 -15
-84 -15 -90 0 -13 88 -53 97 -44 3 4 8 47 11 97 3 65 2 90 -7 90 -6 0 -14 -7
-17 -15 -13 -34 -24 -11 -24 50 0 60 -6 75 -23 58z m33 -157 c0 -15 -18 -31
-26 -23 -7 7 7 37 17 37 5 0 9 -6 9 -14z"/>
<path d="M4600 6846 c0 -24 16 -43 26 -33 8 7 -7 57 -17 57 -5 0 -9 -11 -9
-24z"/>
<path d="M5030 6840 c0 -32 -9 -37 -28 -18 -16 16 -32 -5 -32 -44 0 -15 -4
-30 -10 -33 -6 -4 -10 6 -10 24 0 31 -17 52 -24 29 -3 -7 -7 -30 -11 -50 l-6
-38 59 0 60 0 16 40 c21 53 22 120 1 120 -10 0 -15 -10 -15 -30z"/>
<path d="M4419 6840 c25 -21 61 -27 61 -10 0 12 -43 30 -68 30 -14 -1 -12 -4
7 -20z"/>
<path d="M4677 6843 c-4 -3 -7 -19 -7 -35 0 -35 23 -34 28 1 4 25 -10 46 -21
34z"/>
<path d="M4727 6823 c-10 -9 -9 -41 2 -47 11 -7 21 28 12 43 -4 6 -10 8 -14 4z"/>
<path d="M4782 6793 c4 -39 28 -42 28 -4 0 21 -5 31 -16 31 -11 0 -14 -8 -12
-27z"/>
<path d="M4830 6771 c0 -45 2 -49 28 -54 15 -3 28 -4 29 -3 1 1 5 21 9 45 7
42 6 43 -15 32 -18 -10 -21 -9 -21 9 0 11 -7 20 -15 20 -11 0 -15 -12 -15 -49z"/>
<path d="M5260 6735 c0 -14 5 -25 10 -25 6 0 10 11 10 25 0 14 -4 25 -10 25
-5 0 -10 -11 -10 -25z"/>
<path d="M4510 6511 c0 -20 43 -71 60 -71 6 0 2 17 -9 39 -23 43 -51 61 -51
32z"/>
<path d="M4414 6505 c-11 -26 40 -108 72 -117 15 -4 30 -5 33 -2 3 3 -7 29
-22 57 -15 29 -27 58 -27 65 0 17 -49 15 -56 -3z"/>
<path d="M5639 5949 c-25 -25 -21 -53 8 -57 26 -4 63 30 63 58 0 27 -43 27
-71 -1z"/>
<path d="M3280 3011 c-15 -28 -13 -33 10 -21 11 6 20 17 20 25 0 21 -17 18
-30 -4z"/>
<path d="M3440 2802 c0 -24 9 -42 30 -64 17 -17 33 -28 36 -25 7 7 -21 67 -45
97 l-21 25 0 -33z"/>
<path d="M3240 2045 c0 -21 30 -31 40 -14 11 17 3 29 -21 29 -10 0 -19 -7 -19
-15z"/>
<path d="M3692 943 c5 -26 38 -29 38 -4 0 15 -6 21 -21 21 -14 0 -19 -5 -17
-17z"/>
<path d="M6214 2184 c3 -9 6 -18 6 -20 0 -2 5 -4 10 -4 6 0 10 9 10 20 0 12
-7 20 -16 20 -11 0 -14 -5 -10 -16z"/>
<path d="M6010 1200 c27 -20 36 -19 27 5 -4 8 -17 15 -29 15 l-23 0 25 -20z"/>
<path d="M6526 2155 c15 -69 50 -140 76 -154 15 -9 30 -12 34 -8 12 11 -34 98
-77 147 -38 44 -39 44 -33 15z"/>
</g>
</svg>
