<?xml version="1.0" standalone="no"?>
<!DOCTYPE svg PUBLIC "-//W3C//DTD SVG 20010904//EN"
 "http://www.w3.org/TR/2001/REC-SVG-20010904/DTD/svg10.dtd">
<svg version="1.0" xmlns="http://www.w3.org/2000/svg"
 width="640.000000pt" height="1280.000000pt" viewBox="0 0 640.000000 1280.000000"
 preserveAspectRatio="xMidYMid meet">
<metadata>
Created by potrace 1.15, written by Peter Selinger 2001-2017
</metadata>
<g transform="translate(0.000000,1280.000000) scale(0.100000,-0.100000)"
fill="#000000" stroke="none">
<path d="M3521 12768 c-23 -59 -71 -213 -71 -230 0 -9 5 -18 11 -20 9 -3 8
-11 -2 -28 -14 -26 -21 -78 -38 -260 -5 -58 -19 -142 -30 -188 -12 -46 -31
-149 -42 -230 -19 -142 -51 -276 -67 -286 -14 -8 -113 150 -154 246 -21 50
-57 151 -79 226 -86 292 -107 333 -211 403 -35 24 -80 56 -100 72 -57 46 -144
34 -187 -24 -20 -27 -28 -30 -54 -25 -17 3 -53 20 -80 38 -41 26 -60 32 -125
35 -66 3 -74 2 -58 -10 16 -11 -1 -18 -136 -51 -95 -24 -187 -41 -242 -44 -85
-4 -91 -6 -120 -37 -17 -18 -78 -56 -136 -85 -58 -28 -121 -67 -140 -85 -32
-30 -145 -95 -166 -95 -5 0 -43 -32 -84 -70 -41 -39 -87 -76 -102 -82 -15 -7
-32 -23 -38 -36 -6 -14 -31 -51 -56 -83 -49 -63 -82 -147 -118 -299 -13 -53
-37 -127 -54 -165 -37 -85 -72 -198 -72 -232 0 -17 20 -45 60 -87 63 -66 127
-107 195 -125 49 -13 104 -46 112 -66 7 -20 -39 -149 -88 -248 l-40 -78 32
-17 c18 -9 51 -31 75 -49 23 -17 59 -35 79 -39 20 -3 39 -13 42 -21 3 -8 -1
-42 -10 -76 l-15 -62 50 -45 c46 -42 49 -47 39 -73 -18 -46 -13 -63 24 -88 44
-29 51 -54 35 -121 -17 -75 -111 -269 -169 -347 -97 -133 -104 -146 -99 -199
3 -34 15 -63 39 -96 68 -96 90 -132 101 -171 7 -22 24 -56 39 -75 15 -19 46
-89 69 -154 28 -82 53 -137 80 -173 46 -60 49 -88 21 -160 -10 -26 -24 -73
-31 -103 -7 -30 -35 -103 -61 -161 -27 -58 -49 -111 -49 -118 0 -21 45 -10 80
19 39 34 66 40 55 13 -25 -67 -195 -313 -215 -313 -10 0 -90 -137 -90 -155 0
-8 12 -21 26 -27 29 -14 44 0 44 40 0 14 18 44 41 70 23 26 97 131 166 234 68
102 141 206 161 230 21 23 43 60 49 81 6 21 38 84 72 140 33 56 69 134 81 172
12 39 35 112 51 163 23 73 27 97 18 108 -18 22 -27 9 -55 -84 -45 -153 -66
-206 -92 -242 l-27 -35 -6 39 c-10 62 8 187 52 366 27 107 44 203 49 275 4 61
13 123 19 138 14 35 15 137 1 137 -5 0 -16 -12 -24 -27 -15 -30 -65 -294 -91
-478 -13 -88 -20 -114 -39 -135 -13 -14 -38 -53 -55 -87 -40 -80 -59 -91 -95
-54 -27 28 -66 116 -66 148 0 10 -11 40 -25 68 -13 27 -44 93 -68 145 -24 52
-68 124 -97 160 -87 108 -88 126 -5 235 71 94 101 149 145 263 l38 97 45 6
c24 4 66 16 92 28 76 34 75 35 69 -81 -3 -57 -10 -125 -15 -151 -13 -70 -11
-103 8 -123 17 -16 18 -15 36 22 15 32 17 63 16 179 -3 226 -5 211 43 236 55
27 53 26 38 44 -9 11 -10 19 -3 26 16 16 35 -16 40 -69 3 -26 13 -66 24 -89
29 -64 25 -125 -12 -189 -33 -59 -36 -99 -5 -99 13 0 22 12 31 42 7 23 24 56
39 73 33 39 35 102 6 185 -27 78 -25 92 10 110 18 9 40 35 54 63 39 77 108
164 188 236 46 41 78 78 81 93 6 32 -10 93 -29 113 -22 23 -35 -5 -28 -60 l6
-46 -66 -62 c-37 -34 -70 -62 -75 -62 -5 0 -16 26 -25 59 -16 59 -46 98 -65
86 -17 -10 -13 -67 8 -100 18 -29 18 -31 0 -65 -11 -19 -29 -61 -41 -93 l-23
-59 -115 -2 c-64 -2 -139 -10 -168 -18 l-53 -15 -11 26 c-5 14 -20 73 -33 131
-13 58 -36 137 -50 175 -15 39 -33 104 -41 145 -11 55 -29 99 -69 170 -30 52
-58 107 -64 122 -8 21 -33 39 -108 76 -54 27 -116 55 -137 62 -56 18 -146 123
-146 171 0 15 13 52 30 83 16 31 34 83 40 115 11 61 39 149 83 258 14 34 28
77 32 95 12 52 149 208 184 208 10 0 23 10 30 23 16 30 89 83 164 122 34 17
109 60 167 97 58 36 128 77 155 91 53 27 369 107 420 107 17 0 49 9 70 21 53
27 109 20 228 -29 82 -34 90 -35 99 -18 5 9 23 33 40 52 54 61 112 41 263 -92
59 -52 65 -61 65 -96 0 -21 7 -49 14 -61 8 -12 40 -96 72 -187 60 -175 121
-319 186 -437 l39 -72 -10 -123 c-10 -130 -27 -195 -92 -362 -37 -96 -38 -101
-22 -117 54 -53 93 -8 100 116 l6 87 39 25 39 26 143 -71 c91 -44 185 -82 257
-102 286 -81 359 -128 359 -230 0 -17 21 -97 46 -177 34 -108 53 -152 75 -174
16 -16 38 -48 50 -70 11 -23 53 -76 92 -118 133 -142 292 -495 348 -771 54
-266 68 -438 49 -595 -7 -55 -13 -158 -15 -230 -1 -71 -10 -170 -19 -219 -21
-117 -20 -186 4 -271 11 -38 20 -85 20 -103 0 -19 9 -77 19 -130 24 -117 41
-293 41 -419 0 -50 5 -104 12 -120 8 -20 11 -99 9 -263 -2 -171 1 -243 10
-265 16 -37 19 -134 23 -575 6 -641 23 -1107 45 -1200 5 -25 10 -126 11 -225
0 -136 9 -257 36 -505 l36 -325 -19 -95 c-16 -84 -18 -145 -16 -530 1 -403 3
-450 28 -645 30 -238 40 -422 36 -610 -4 -142 0 -217 13 -285 9 -41 22 -110
30 -153 10 -53 24 -90 41 -113 30 -40 40 -42 49 -11 11 42 6 84 -24 192 -17
60 -30 121 -28 137 l3 27 70 -59 c174 -148 219 -184 271 -215 31 -19 69 -37
86 -40 20 -5 33 -16 39 -34 7 -19 27 -36 67 -55 94 -46 309 -193 337 -231 15
-19 33 -52 41 -72 22 -62 16 -220 -16 -443 -16 -113 -30 -243 -30 -289 0 -74
-3 -88 -25 -117 -21 -27 -37 -35 -96 -48 -39 -9 -82 -24 -95 -32 -22 -15 -28
-15 -72 1 -90 32 -185 47 -302 45 l-115 -1 -18 52 c-25 69 -104 149 -171 172
-27 9 -77 20 -111 23 -61 6 -64 6 -126 -36 -35 -24 -140 -107 -234 -185 -190
-159 -266 -213 -348 -249 -73 -33 -84 -51 -26 -41 112 19 212 75 349 199 61
55 89 74 103 70 29 -9 67 22 67 56 0 17 5 30 11 30 7 0 37 20 67 45 l55 45 77
-3 c76 -4 79 -5 111 -42 48 -54 110 -136 122 -162 14 -31 28 -34 150 -34 126
1 237 -18 313 -53 l55 -25 50 19 c27 11 63 20 79 20 15 0 41 10 57 23 15 13
43 29 61 37 75 30 105 140 117 425 3 94 15 240 26 325 25 200 19 239 -49 302
-26 24 -76 61 -112 82 -36 21 -83 55 -105 75 -22 21 -60 44 -85 51 -25 8 -60
27 -78 42 -18 16 -79 58 -135 94 -56 37 -130 89 -164 118 -34 28 -83 64 -108
80 -26 16 -74 54 -106 84 -45 42 -63 52 -71 44 -7 -7 -14 -12 -18 -12 -9 0 -5
104 4 120 15 22 18 438 4 480 -7 19 -13 64 -14 100 -11 303 -22 509 -30 521
-5 8 -9 70 -10 139 -1 69 -3 201 -4 294 -1 124 3 197 16 277 16 94 17 120 6
206 -7 54 -12 174 -12 266 0 130 -3 173 -15 190 -10 16 -14 51 -14 122 0 88
-12 273 -26 405 -17 159 -28 367 -31 575 -9 642 -36 1396 -59 1620 -7 77 -14
193 -15 258 -1 150 -24 359 -44 416 -19 51 -41 276 -29 294 4 6 11 136 14 287
4 185 11 287 19 313 14 38 12 74 -20 429 -22 243 -131 574 -251 765 -11 17
-21 43 -22 56 -1 16 -27 48 -76 93 -40 37 -93 98 -118 136 -25 37 -49 68 -54
68 -11 0 -59 156 -95 306 -25 106 -31 122 -62 151 -54 50 -151 95 -347 163
-161 55 -457 179 -478 200 -5 4 3 41 18 81 38 104 57 189 50 217 -3 13 -2 29
4 35 15 19 51 134 51 165 0 16 6 48 14 70 20 56 80 348 81 397 1 22 6 56 12
75 6 19 14 76 18 125 8 112 17 145 25 95 4 -24 9 0 15 80 18 227 9 320 -24
238z m-2274 -2040 c12 -24 31 -74 43 -113 12 -38 34 -104 49 -145 16 -41 39
-118 51 -170 24 -101 64 -199 97 -240 20 -24 22 -24 71 -11 28 7 61 10 72 6
14 -4 28 -1 41 11 23 21 35 13 21 -13 -11 -19 -165 -96 -212 -106 -23 -5 -28
0 -54 58 -15 35 -37 72 -47 81 -23 21 -24 32 -3 55 24 27 9 53 -52 90 -44 27
-54 38 -49 54 26 89 8 123 -104 197 -93 61 -91 48 -23 190 30 62 53 98 63 98
8 0 25 -19 36 -42z m359 -2139 c2 -124 2 -124 -34 -193 -36 -70 -79 -108 -134
-121 -37 -9 -37 5 6 108 18 45 47 127 64 183 32 101 64 158 86 151 7 -2 11
-45 12 -128z"/>
<path d="M2400 12010 c0 -15 33 -45 78 -70 33 -19 46 -35 67 -84 14 -34 35
-72 45 -86 l20 -25 1 30 c4 87 -11 131 -59 178 -52 51 -152 88 -152 57z"/>
<path d="M2803 11965 c3 -19 19 -54 35 -77 76 -111 95 -202 72 -353 -6 -44
-14 -97 -17 -118 -5 -35 -4 -38 26 -48 35 -12 35 -11 0 -129 -44 -147 -167
-333 -269 -406 -36 -26 -50 -43 -50 -60 0 -32 35 -33 51 -1 7 12 52 64 100
115 141 149 206 265 231 411 12 71 12 73 -11 90 -23 18 -23 20 -10 72 7 30 13
97 12 149 0 149 -42 275 -116 354 -44 47 -61 47 -54 1z"/>
<path d="M2677 11761 c-21 -161 -53 -249 -111 -311 -51 -55 -55 -65 -26 -80
32 -17 74 32 120 140 62 144 82 248 64 339 -13 65 -31 33 -47 -88z"/>
<path d="M2355 11076 c-19 -40 -58 -81 -179 -190 -88 -79 -124 -130 -113 -160
10 -25 37 -19 50 12 16 37 110 140 216 236 49 45 66 69 75 109 10 42 -28 37
-49 -7z"/>
<path d="M3010 10887 c0 -17 -11 -28 -42 -42 -24 -11 -44 -28 -46 -38 -2 -9
11 -36 29 -58 30 -38 33 -40 46 -23 18 24 17 54 -2 54 -28 0 -15 19 18 28 27
7 33 13 35 41 3 31 -11 61 -29 61 -5 0 -9 -10 -9 -23z"/>
<path d="M3115 10234 c-8 -20 -15 -43 -15 -51 0 -7 -8 -30 -19 -51 -29 -59
-63 -170 -58 -194 3 -17 16 3 54 83 56 116 73 166 73 217 0 42 -16 41 -35 -4z"/>
<path d="M2901 9768 c-14 -56 -64 -355 -96 -578 -13 -96 -38 -251 -54 -345
-16 -93 -37 -237 -46 -320 -8 -82 -27 -229 -40 -325 -37 -261 -45 -364 -34
-405 6 -19 14 -35 19 -35 15 0 33 69 22 83 -13 16 0 146 32 313 41 210 45 239
66 469 26 275 44 385 76 446 22 45 24 59 24 205 0 138 3 171 30 287 40 172 48
247 28 247 -10 0 -20 -16 -27 -42z"/>
<path d="M2291 8966 c-10 -12 4 -35 74 -123 87 -110 157 -233 175 -310 16 -66
28 -51 18 23 -18 131 -80 260 -177 366 -55 60 -70 68 -90 44z"/>
<path d="M1865 8799 c-4 -11 -3 -157 1 -324 6 -279 8 -306 26 -321 16 -15 16
-19 4 -33 -19 -21 -21 -112 -11 -426 9 -278 -6 -776 -32 -1095 -18 -227 -19
-238 -4 -253 22 -22 33 12 42 135 5 67 12 134 16 148 4 14 8 50 9 80 1 30 7
163 14 295 7 132 13 263 13 290 0 28 0 149 1 270 2 446 -3 646 -23 884 -12
134 -21 272 -21 307 0 49 -3 64 -14 64 -8 0 -18 -9 -21 -21z"/>
<path d="M4210 8130 c-14 -25 -4 -293 11 -322 6 -11 10 -60 10 -110 -1 -102 9
-110 47 -38 20 39 23 54 18 115 -3 39 -15 108 -26 155 -12 47 -24 113 -27 148
-7 68 -16 84 -33 52z"/>
<path d="M1066 7616 c-8 -19 -22 -72 -31 -118 -9 -46 -28 -128 -42 -183 -55
-221 -55 -219 -63 -670 -6 -332 -13 -471 -29 -610 -12 -104 -18 -205 -15 -240
3 -38 0 -87 -11 -135 -9 -41 -23 -185 -30 -320 -8 -135 -27 -339 -41 -454 -16
-127 -24 -233 -21 -268 3 -39 1 -68 -9 -86 -26 -52 -69 -510 -84 -897 -5 -143
-13 -282 -16 -310 -3 -27 -12 -201 -20 -385 -14 -323 -25 -489 -40 -596 l-6
-51 68 -6 c38 -4 90 -7 116 -7 30 0 60 -8 83 -21 55 -33 105 -29 170 15 58 38
85 45 85 22 0 -8 -9 -52 -20 -98 -24 -104 -40 -318 -40 -554 0 -159 -3 -194
-24 -275 -13 -52 -27 -114 -30 -139 -4 -25 -22 -69 -41 -100 -50 -77 -47 -102
15 -142 55 -36 57 -40 86 -189 9 -48 14 -99 10 -113 -12 -50 -51 -24 -82 54
-9 25 -35 72 -56 104 l-39 59 25 35 c14 20 23 39 20 44 -13 20 -44 4 -99 -53
-92 -93 -137 -108 -213 -70 -140 70 -249 7 -295 -171 l-15 -57 42 -18 c37 -16
77 -18 436 -19 217 0 421 -4 452 -8 45 -6 61 -5 79 8 22 15 25 14 84 -43 80
-77 108 -83 209 -47 54 19 94 26 145 26 57 0 98 9 199 42 78 26 146 42 176 42
43 0 52 -4 82 -37 89 -97 129 -62 55 49 -63 94 -106 134 -144 134 -18 0 -17
-2 3 -35 12 -19 19 -39 15 -45 -3 -5 -25 -10 -48 -10 -23 0 -87 -16 -142 -35
-85 -30 -112 -35 -185 -34 -62 0 -101 -5 -144 -20 -33 -12 -78 -21 -100 -20
-39 0 -44 5 -108 82 -119 147 -293 321 -345 348 -117 59 -124 75 -68 153 25
35 35 60 35 87 0 20 12 63 28 95 27 59 27 59 28 294 0 160 4 250 13 282 7 26
11 64 9 85 -3 21 1 58 8 83 8 25 14 82 14 126 0 109 8 143 35 156 20 9 23 20
30 111 4 56 13 113 20 127 7 14 22 70 34 124 12 54 37 133 55 175 18 42 40
105 49 141 16 66 57 327 57 367 0 30 19 77 27 69 7 -7 24 -208 25 -291 0 -22
-3 -83 -7 -135 -9 -118 1 -160 59 -234 53 -68 53 -72 66 -361 6 -132 16 -246
25 -284 24 -100 72 -186 155 -275 48 -51 84 -101 99 -136 27 -64 66 -110 94
-110 11 0 35 11 53 25 18 14 39 25 46 25 7 0 36 -15 63 -34 163 -110 292 -283
399 -534 36 -84 80 -171 99 -195 54 -67 100 -171 136 -314 l19 -74 -22 -14
c-13 -9 -63 -29 -111 -45 -106 -36 -176 -39 -220 -10 -35 23 -85 27 -85 6 0
-23 48 -55 109 -73 71 -20 152 -9 247 36 36 17 69 29 73 26 4 -2 16 -29 27
-61 10 -31 34 -73 51 -94 18 -21 33 -45 33 -54 0 -33 23 -65 53 -72 44 -9 153
-7 217 6 148 28 459 20 580 -16 29 -9 73 -34 110 -65 42 -36 82 -59 132 -75
39 -14 73 -23 75 -20 2 2 -30 35 -72 74 -140 131 -222 162 -427 162 -70 0
-150 5 -177 11 -41 9 -76 7 -190 -11 -201 -31 -197 -32 -248 65 -77 145 -81
157 -93 265 -8 70 -21 127 -40 170 -15 36 -30 81 -34 101 -3 20 -21 53 -39 75
-40 48 -137 243 -140 280 -1 16 -10 36 -19 45 -9 10 -20 34 -24 53 -3 20 -10
36 -15 36 -5 0 -32 35 -60 78 -28 42 -57 81 -65 85 -8 4 -14 16 -14 26 0 26
-71 96 -126 125 -27 13 -65 38 -83 54 l-35 29 70 69 c100 99 174 190 174 212
0 10 9 27 20 37 12 11 20 31 20 50 0 19 12 47 31 73 l30 42 37 -16 c37 -15 82
-12 82 7 0 5 -7 25 -15 45 -14 34 -61 64 -99 64 -19 0 -40 -40 -65 -120 -10
-32 -39 -88 -64 -123 -25 -35 -49 -76 -53 -91 -9 -39 -162 -177 -237 -215 -87
-44 -105 -40 -143 32 -17 32 -65 93 -106 135 -94 96 -108 117 -108 163 0 21
-6 39 -13 42 -18 7 -46 102 -59 204 -6 50 -8 152 -5 235 4 116 3 150 -8 165
-8 10 -15 32 -15 50 0 20 -8 38 -23 50 -12 10 -32 30 -44 46 -18 23 -20 32
-11 61 8 26 7 46 -8 92 -15 47 -17 69 -10 107 7 33 5 86 -5 170 -9 83 -13 202
-11 371 4 267 -7 417 -40 561 -17 74 -22 141 -28 370 -5 232 -10 296 -28 370
-11 50 -25 141 -32 203 -6 62 -17 155 -24 205 -11 71 -12 205 -8 597 3 278 5
519 5 535 0 17 -5 62 -11 100 -6 39 -12 108 -12 155 0 111 -21 235 -66 395
-20 72 -45 162 -55 200 -34 126 -51 152 -63 95 -6 -34 17 -177 62 -380 45
-199 51 -262 62 -630 18 -644 21 -716 31 -900 13 -230 32 -432 64 -665 38
-278 47 -388 39 -504 -5 -84 -3 -119 9 -161 16 -56 17 -197 1 -332 -4 -40 -3
-63 6 -73 10 -12 10 -15 -2 -15 -12 0 -17 -30 -26 -148 -13 -170 -74 -590 -98
-672 -8 -30 -29 -79 -45 -108 -19 -33 -40 -101 -59 -185 -66 -292 -64 -285
-111 -334 -76 -77 -119 -89 -198 -53 -34 16 -65 20 -143 20 -90 0 -99 2 -94
18 27 89 67 583 67 822 -1 267 46 1022 74 1218 9 56 15 149 14 205 -1 76 4
123 20 184 11 45 21 106 21 135 0 30 9 126 20 214 11 87 20 210 20 272 0 83 4
123 16 150 10 21 18 70 20 112 1 41 8 134 14 205 7 72 13 195 15 275 2 80 11
199 21 265 15 97 18 176 17 417 -1 164 2 300 7 303 4 3 6 13 3 24 -3 10 3 33
12 51 11 20 15 44 11 62 -4 18 5 62 24 122 17 51 30 106 30 122 1 16 7 40 15
54 8 14 14 37 15 53 0 41 -36 37 -54 -7z m182 -6857 c88 -100 87 -114 -7 -105
-44 4 -70 11 -78 22 -15 21 -33 104 -33 155 0 39 0 39 24 24 13 -9 55 -52 94
-96z m-321 11 c23 -46 43 -90 43 -97 0 -10 -53 -13 -257 -12 -142 1 -268 4
-281 7 l-22 7 22 45 c32 63 77 90 147 90 38 0 66 -6 89 -20 53 -32 84 -26 133
25 28 29 51 45 63 43 13 -2 34 -31 63 -88z"/>
<path d="M4187 7553 c-7 -12 -101 -303 -141 -433 -104 -345 -124 -443 -93
-469 25 -20 37 -4 37 53 0 65 19 141 105 416 86 275 115 378 115 412 0 26 -13
38 -23 21z"/>
<path d="M4234 5759 c-26 -33 -36 -93 -44 -254 -12 -230 -11 -478 1 -605 6
-58 11 -117 10 -132 0 -16 0 -36 -1 -45 -1 -98 12 -371 20 -405 12 -54 12
-337 0 -656 -8 -227 -8 -246 11 -304 11 -34 19 -89 19 -127 0 -62 8 -106 59
-341 12 -52 24 -144 27 -205 6 -91 14 -134 51 -250 24 -77 48 -175 53 -217 12
-99 60 -244 144 -431 98 -219 139 -297 190 -359 25 -31 52 -74 59 -97 22 -62
134 -223 257 -366 61 -71 118 -142 125 -156 19 -36 196 -184 255 -214 61 -31
130 -44 130 -24 0 22 -12 34 -60 64 -72 44 -338 318 -432 445 -159 215 -300
435 -421 661 -64 119 -165 413 -174 503 -3 39 -14 92 -24 117 -10 25 -23 75
-29 110 -6 35 -22 111 -35 169 -13 58 -34 173 -45 255 -11 83 -30 210 -41 284
-40 274 -49 404 -49 745 0 496 -17 993 -40 1180 -23 181 -25 287 -9 472 12
149 10 205 -7 183z"/>
<path d="M2827 4948 c-2 -7 2 -27 10 -45 8 -20 13 -72 13 -135 0 -58 6 -123
14 -148 7 -25 16 -85 20 -135 4 -49 16 -151 26 -225 11 -74 24 -223 30 -330
17 -296 20 -324 33 -311 8 8 13 69 15 174 4 198 -25 517 -74 821 -19 115 -34
229 -34 252 0 23 -4 54 -10 68 -10 27 -35 35 -43 14z"/>
</g>
</svg>
