<?xml version="1.0" standalone="no"?>
<!DOCTYPE svg PUBLIC "-//W3C//DTD SVG 20010904//EN"
 "http://www.w3.org/TR/2001/REC-SVG-20010904/DTD/svg10.dtd">
<svg version="1.0" xmlns="http://www.w3.org/2000/svg"
 width="10" height="10" viewBox="0 0 1280.000000 1036.000000"
 preserveAspectRatio="xMidYMid meet">
<metadata>
Created by potrace 1.15, written by Peter Selinger 2001-2017
</metadata>
<g transform="translate(0.000000,1036.000000) scale(0.100000,-0.100000)"
fill="#000000" stroke="none">
<path d="M1430 10175 l0 -185 445 0 445 0 0 185 0 185 -445 0 -445 0 0 -185z"/>
<path d="M2390 10175 l0 -185 445 0 445 0 0 185 0 185 -445 0 -445 0 0 -185z"/>
<path d="M3360 10175 l0 -185 445 0 445 0 0 185 0 185 -445 0 -445 0 0 -185z"/>
<path d="M4280 10175 l0 -185 445 0 445 0 0 185 0 185 -445 0 -445 0 0 -185z"/>
<path d="M5250 10175 l0 -185 440 0 440 0 0 185 0 185 -440 0 -440 0 0 -185z"/>
<path d="M6210 10175 l0 -185 445 0 445 0 0 185 0 185 -445 0 -445 0 0 -185z"/>
<path d="M7130 10175 l0 -185 450 0 450 0 0 185 0 185 -450 0 -450 0 0 -185z"/>
<path d="M8100 10175 l0 -185 445 0 445 0 0 185 0 185 -445 0 -445 0 0 -185z"/>
<path d="M9060 10175 l0 -185 445 0 445 0 0 185 0 185 -445 0 -445 0 0 -185z"/>
<path d="M9990 10175 l0 -185 445 0 445 0 0 185 0 185 -445 0 -445 0 0 -185z"/>
<path d="M10950 10175 l0 -185 445 0 445 0 0 185 0 185 -445 0 -445 0 0 -185z"/>
<path d="M11910 10175 l0 -185 445 0 445 0 0 185 0 185 -445 0 -445 0 0 -185z"/>
<path d="M1430 9775 l0 -185 255 0 255 0 0 185 0 185 -255 0 -255 0 0 -185z"/>
<path d="M4280 9775 l0 -185 255 0 255 0 0 185 0 185 -255 0 -255 0 0 -185z"/>
<path d="M7130 9775 l0 -185 258 0 257 0 -2 182 -2 183 -256 3 -255 2 0 -185z"/>
<path d="M9987 9954 c-4 -4 -7 -88 -7 -186 l0 -178 258 0 257 0 -2 182 -2 183
-249 3 c-136 1 -251 -1 -255 -4z"/>
<path d="M1980 9755 l0 -185 445 0 445 0 0 185 0 185 -445 0 -445 0 0 -185z"/>
<path d="M2942 9758 l3 -183 443 -3 442 -2 0 185 0 185 -445 0 -445 0 2 -182z"/>
<path d="M3910 9755 l0 -185 168 2 167 3 3 183 2 182 -170 0 -170 0 0 -185z"/>
<path d="M4832 9758 l3 -183 443 -3 442 -2 0 185 0 185 -445 0 -445 0 2 -182z"/>
<path d="M5792 9758 l3 -183 443 0 443 0 2 183 2 182 -448 0 -447 0 2 -182z"/>
<path d="M6760 9755 l0 -185 168 2 167 3 3 183 2 182 -170 0 -170 0 0 -185z"/>
<path d="M7687 9758 l2 -183 441 0 441 0 2 183 2 182 -445 0 -445 0 2 -182z"/>
<path d="M8650 9755 l0 -185 443 2 442 3 3 183 2 182 -445 0 -445 0 0 -185z"/>
<path d="M9610 9755 l0 -185 170 0 170 0 0 185 0 185 -170 0 -170 0 0 -185z"/>
<path d="M10532 9758 l3 -183 445 0 445 0 3 183 2 182 -450 0 -450 0 2 -182z"/>
<path d="M11500 9755 l0 -185 445 0 445 0 0 185 0 185 -445 0 -445 0 0 -185z"/>
<path d="M12460 9755 l0 -185 170 0 170 0 0 185 0 185 -170 0 -170 0 0 -185z"/>
<path d="M1434 9517 c-2 -7 -3 -91 -2 -187 l3 -175 445 0 445 0 0 185 0 185
-443 3 c-355 2 -444 0 -448 -11z"/>
<path d="M2393 9515 c-2 -6 -2 -89 -1 -185 l3 -175 443 -3 442 -3 0 186 0 185
-441 2 c-298 2 -443 0 -446 -7z"/>
<path d="M3798 9522 l-438 -2 0 -185 0 -186 443 3 442 3 3 179 c1 99 -1 182
-5 185 -5 3 -205 5 -445 3z"/>
<path d="M4284 9517 c-2 -7 -3 -91 -2 -187 l3 -175 448 -3 447 -2 0 190 0 190
-445 0 c-354 0 -447 -3 -451 -13z"/>
<path d="M5250 9523 c0 -2 -1 -85 -1 -185 l0 -183 441 -2 440 -3 0 188 0 187
-440 0 c-242 0 -440 -1 -440 -2z"/>
<path d="M6648 9522 l-438 -2 0 -185 0 -185 443 2 442 3 3 179 c1 99 -1 182
-5 185 -5 3 -205 5 -445 3z"/>
<path d="M7134 9517 c-2 -7 -3 -91 -2 -187 l3 -175 448 -3 447 -2 0 190 0 190
-445 0 c-354 0 -447 -3 -451 -13z"/>
<path d="M8538 9522 l-438 -2 0 -185 0 -186 443 3 442 3 3 179 c1 99 -1 182
-5 185 -5 3 -205 5 -445 3z"/>
<path d="M9984 9517 c-2 -7 -3 -91 -2 -187 l3 -175 448 -3 447 -2 0 190 0 190
-445 0 c-354 0 -447 -3 -451 -13z"/>
<path d="M9062 9338 l3 -183 440 0 440 0 3 183 2 182 -445 0 -445 0 2 -182z"/>
<path d="M10950 9335 l0 -185 443 2 442 3 3 183 2 182 -445 0 -445 0 0 -185z"/>
<path d="M11912 9338 l3 -183 443 -3 442 -3 0 186 0 185 -445 0 -445 0 2 -182z"/>
<path d="M1430 8925 l0 -185 195 0 195 0 -2 183 -3 182 -192 3 -193 2 0 -185z"/>
<path d="M1842 8923 l3 -188 443 -2 442 -2 0 189 0 190 -445 0 -445 0 2 -187z"/>
<path d="M2810 8925 l0 -185 445 0 445 0 -2 183 -3 182 -442 3 -443 2 0 -185z"/>
<path d="M3770 8925 l0 -185 240 0 240 0 -2 183 -3 182 -237 3 -238 2 0 -185z"/>
<path d="M4280 8925 l0 -185 195 0 195 0 -2 183 -3 182 -192 3 -193 2 0 -185z"/>
<path d="M4694 9097 c-2 -7 -3 -91 -2 -187 l3 -175 445 0 445 0 0 185 0 185
-443 3 c-355 2 -444 0 -448 -11z"/>
<path d="M5660 8925 l0 -185 445 0 445 0 -2 183 -3 182 -442 3 -443 2 0 -185z"/>
<path d="M6620 8925 l0 -185 240 0 240 0 -2 183 -3 182 -237 3 -238 2 0 -185z"/>
<path d="M7130 8925 l0 -185 195 0 195 0 0 185 0 185 -195 0 -195 0 0 -185z"/>
<path d="M7550 8920 l0 -190 443 2 442 3 3 188 2 187 -445 0 -445 0 0 -190z"/>
<path d="M8510 8925 l0 -185 445 0 445 0 0 185 0 185 -445 0 -445 0 0 -185z"/>
<path d="M9477 9103 c-4 -3 -7 -87 -7 -185 l0 -178 240 0 240 0 0 185 0 185
-233 0 c-129 0 -237 -3 -240 -7z"/>
<path d="M9980 8925 l0 -185 195 0 195 0 0 185 0 185 -195 0 -195 0 0 -185z"/>
<path d="M10400 8920 l0 -191 443 3 442 3 3 188 2 187 -445 0 -445 0 0 -190z"/>
<path d="M11360 8925 l0 -185 445 0 445 0 0 185 0 185 -445 0 -445 0 0 -185z"/>
<path d="M12327 9103 c-4 -3 -7 -87 -7 -185 l0 -178 240 0 240 0 0 185 0 185
-233 0 c-129 0 -237 -3 -240 -7z"/>
<path d="M1413 8695 c-2 -6 -2 -89 -1 -185 l3 -175 445 0 445 0 0 183 0 182
-444 3 c-298 1 -445 -1 -448 -8z"/>
<path d="M4270 8517 l0 -187 443 2 442 3 0 183 0 182 -443 3 -442 2 0 -188z"/>
<path d="M9974 8701 c-2 -2 -4 -87 -4 -188 l0 -183 445 0 445 0 0 185 0 185
-441 2 c-242 2 -443 1 -445 -1z"/>
<path d="M2380 8515 l0 -185 443 2 442 3 3 183 2 182 -445 0 -445 0 0 -185z"/>
<path d="M3342 8518 l3 -183 443 -3 442 -2 0 185 0 185 -445 0 -445 0 2 -182z"/>
<path d="M5230 8515 l0 -185 445 0 445 0 0 185 0 185 -445 0 -445 0 0 -185z"/>
<path d="M6192 8518 l3 -183 443 -3 442 -2 0 185 0 185 -445 0 -445 0 2 -182z"/>
<path d="M7120 8515 l0 -185 445 0 445 0 0 185 0 185 -445 0 -445 0 0 -185z"/>
<path d="M8082 8518 l3 -183 443 -3 442 -2 0 185 0 185 -445 0 -445 0 2 -182z"/>
<path d="M9050 8515 l0 -185 440 2 441 3 2 183 2 182 -442 0 -443 0 0 -185z"/>
<path d="M10932 8518 l3 -183 443 -3 442 -2 0 185 0 185 -445 0 -445 0 2 -182z"/>
<path d="M11900 8515 l0 -185 443 2 442 3 3 183 2 182 -445 0 -445 0 0 -185z"/>
<path d="M1410 8115 l0 -185 260 0 260 0 0 185 0 185 -260 0 -260 0 0 -185z"/>
<path d="M4270 8115 l0 -185 255 0 255 0 0 185 0 185 -255 0 -255 0 0 -185z"/>
<path d="M7120 8115 l0 -185 255 0 255 0 0 185 0 185 -255 0 -255 0 0 -185z"/>
<path d="M9970 8115 l0 -185 255 0 255 0 0 185 0 185 -255 0 -255 0 0 -185z"/>
<path d="M1970 8103 l0 -188 442 2 443 3 0 182 0 183 -442 3 -443 2 0 -187z"/>
<path d="M2930 8105 l0 -185 445 0 445 0 -2 183 -3 182 -442 3 -443 2 0 -185z"/>
<path d="M3897 8283 c-4 -3 -7 -87 -7 -185 l0 -178 170 0 170 0 0 185 0 185
-163 0 c-90 0 -167 -3 -170 -7z"/>
<path d="M4820 8103 l0 -188 442 2 443 3 0 182 0 183 -442 3 -443 2 0 -187z"/>
<path d="M5780 8105 l0 -185 445 0 445 0 -2 183 -3 182 -442 3 -443 2 0 -185z"/>
<path d="M6747 8283 c-4 -3 -7 -87 -7 -185 l0 -178 170 0 170 0 0 185 0 185
-163 0 c-90 0 -167 -3 -170 -7z"/>
<path d="M7672 8105 l3 -185 443 -3 442 -2 0 188 0 187 -445 0 -445 0 2 -185z"/>
<path d="M8637 8283 c-4 -3 -7 -87 -7 -185 l0 -178 445 0 445 0 0 185 0 185
-438 0 c-241 0 -442 -3 -445 -7z"/>
<path d="M9600 8105 l0 -184 165 -3 165 -3 0 188 0 187 -165 0 -165 0 0 -185z"/>
<path d="M10522 8105 l3 -185 443 -3 442 -2 0 188 0 187 -445 0 -445 0 2 -185z"/>
<path d="M11487 8283 c-4 -3 -7 -87 -7 -185 l0 -178 445 0 445 0 0 185 0 185
-438 0 c-241 0 -442 -3 -445 -7z"/>
<path d="M12450 8105 l0 -185 170 0 170 0 -2 183 -3 182 -167 3 -168 2 0 -185z"/>
<path d="M1417 7863 c-4 -3 -7 -87 -7 -185 l0 -178 450 0 450 0 0 185 0 185
-443 0 c-244 0 -447 -3 -450 -7z"/>
<path d="M2380 7685 l0 -185 445 0 445 0 0 185 0 185 -445 0 -445 0 0 -185z"/>
<path d="M3340 7685 l0 -185 445 0 445 0 0 185 0 185 -445 0 -445 0 0 -185z"/>
<path d="M4267 7863 c-4 -3 -7 -87 -7 -185 l0 -178 455 0 455 0 -2 183 -3 182
-446 3 c-245 1 -449 -1 -452 -5z"/>
<path d="M5230 7685 l0 -185 445 0 445 0 0 185 0 185 -445 0 -445 0 0 -185z"/>
<path d="M6190 7685 l0 -185 445 0 445 0 0 185 0 185 -445 0 -445 0 0 -185z"/>
<path d="M7120 7685 l0 -185 450 0 450 0 0 185 0 185 -450 0 -450 0 0 -185z"/>
<path d="M8080 7685 l0 -185 445 0 445 0 0 185 0 185 -445 0 -445 0 0 -185z"/>
<path d="M9050 7685 l0 -185 440 0 440 0 0 185 0 185 -440 0 -440 0 0 -185z"/>
<path d="M9970 7685 l0 -185 450 0 450 0 0 185 0 185 -450 0 -450 0 0 -185z"/>
<path d="M10937 7863 c-4 -3 -7 -87 -7 -185 l0 -178 445 0 445 0 0 185 0 185
-438 0 c-241 0 -442 -3 -445 -7z"/>
<path d="M11900 7685 l0 -185 445 0 445 0 -2 183 -3 182 -442 3 -443 2 0 -185z"/>
<path d="M1410 7265 l0 -185 195 0 195 0 0 185 0 185 -195 0 -195 0 0 -185z"/>
<path d="M1830 7265 l0 -185 445 0 445 0 0 185 0 185 -445 0 -445 0 0 -185z"/>
<path d="M2790 7265 l0 -185 445 0 445 0 0 185 0 185 -445 0 -445 0 0 -185z"/>
<path d="M3757 7443 c-4 -3 -7 -87 -7 -185 l0 -178 240 0 240 0 0 185 0 185
-233 0 c-129 0 -237 -3 -240 -7z"/>
<path d="M4260 7265 l0 -185 195 0 195 0 0 185 0 185 -195 0 -195 0 0 -185z"/>
<path d="M4680 7265 l0 -185 445 0 445 0 0 185 0 185 -445 0 -445 0 0 -185z"/>
<path d="M5640 7265 l0 -185 445 0 445 0 0 185 0 185 -445 0 -445 0 0 -185z"/>
<path d="M6610 7265 l0 -185 235 0 235 0 0 185 0 185 -235 0 -235 0 0 -185z"/>
<path d="M7117 7444 c-4 -4 -7 -88 -7 -186 l0 -178 200 0 200 0 -2 183 -3 182
-191 3 c-104 1 -193 -1 -197 -4z"/>
<path d="M7530 7265 l0 -185 445 0 445 0 0 185 0 185 -445 0 -445 0 0 -185z"/>
<path d="M8499 7446 c-2 -2 -3 -86 -1 -185 l3 -181 445 0 444 0 -2 183 -3 182
-441 3 c-242 1 -442 0 -445 -2z"/>
<path d="M9460 7265 l0 -185 235 0 235 0 0 185 0 185 -235 0 -235 0 0 -185z"/>
<path d="M9970 7265 l0 -185 195 0 195 0 0 185 0 185 -195 0 -195 0 0 -185z"/>
<path d="M10380 7265 l0 -185 445 0 445 0 0 185 0 185 -445 0 -445 0 0 -185z"/>
<path d="M11350 7265 l0 -185 445 0 445 0 -2 183 -3 182 -442 3 -443 2 0 -185z"/>
<path d="M12310 7265 l0 -185 240 0 240 0 -2 183 -3 182 -237 3 -238 2 0 -185z"/>
<path d="M1410 7048 c0 -2 -1 -85 -3 -186 l-2 -182 445 0 445 0 -2 182 -2 183
-441 3 c-242 1 -440 1 -440 0z"/>
<path d="M4257 7043 c-4 -3 -7 -87 -7 -185 l0 -178 450 0 450 0 -2 183 -3 182
-441 3 c-242 1 -444 -1 -447 -5z"/>
<path d="M7110 6865 l0 -185 445 0 445 0 0 185 0 185 -445 0 -445 0 0 -185z"/>
<path d="M9960 6865 l0 -185 445 0 445 0 0 185 0 185 -445 0 -445 0 0 -185z"/>
<path d="M2370 6860 l0 -180 445 0 445 0 0 180 0 180 -445 0 -445 0 0 -180z"/>
<path d="M3330 6860 l0 -180 445 0 445 0 0 180 0 180 -445 0 -445 0 0 -180z"/>
<path d="M5220 6860 l0 -180 445 0 445 0 0 180 0 180 -445 0 -445 0 0 -180z"/>
<path d="M6180 6860 l0 -180 445 0 445 0 0 180 0 180 -445 0 -445 0 0 -180z"/>
<path d="M8070 6860 l0 -180 445 0 445 0 0 180 0 180 -445 0 -445 0 0 -180z"/>
<path d="M9030 6860 l0 -180 448 0 447 0 0 180 0 180 -447 0 -448 0 0 -180z"/>
<path d="M10920 6860 l0 -180 445 0 445 0 0 180 0 180 -445 0 -445 0 0 -180z"/>
<path d="M11890 6860 l0 -180 440 0 440 0 0 180 0 180 -440 0 -440 0 0 -180z"/>
<path d="M1400 6455 l0 -185 255 0 255 0 0 185 0 185 -255 0 -255 0 0 -185z"/>
<path d="M4250 6455 l0 -185 258 2 257 3 3 183 2 182 -260 0 -260 0 0 -185z"/>
<path d="M7110 6455 l0 -185 255 0 255 0 0 185 0 185 -255 0 -255 0 0 -185z"/>
<path d="M9960 6455 l0 -185 255 0 255 0 0 185 0 185 -255 0 -255 0 0 -185z"/>
<path d="M1957 6623 c-4 -3 -7 -87 -7 -185 l0 -178 450 0 450 0 -2 183 -3 182
-441 3 c-242 1 -444 -1 -447 -5z"/>
<path d="M2920 6445 l0 -185 445 0 445 0 -2 183 -3 182 -442 3 -443 2 0 -185z"/>
<path d="M3880 6445 l0 -185 170 0 170 0 0 185 0 185 -170 0 -170 0 0 -185z"/>
<path d="M4810 6445 l0 -185 445 0 445 0 0 185 0 185 -445 0 -445 0 0 -185z"/>
<path d="M5770 6445 l0 -185 445 0 445 0 0 185 0 185 -445 0 -445 0 0 -185z"/>
<path d="M6737 6623 c-4 -3 -7 -87 -7 -185 l0 -178 170 0 170 0 0 185 0 185
-163 0 c-90 0 -167 -3 -170 -7z"/>
<path d="M7660 6445 l0 -185 445 0 445 0 0 185 0 185 -445 0 -445 0 0 -185z"/>
<path d="M8620 6445 l0 -185 445 0 445 0 0 185 0 185 -445 0 -445 0 0 -185z"/>
<path d="M9590 6445 l0 -185 165 0 165 0 0 185 0 185 -165 0 -165 0 0 -185z"/>
<path d="M10510 6445 l0 -185 445 0 445 0 0 185 0 185 -445 0 -445 0 0 -185z"/>
<path d="M11477 6623 c-4 -3 -7 -87 -7 -185 l0 -178 445 0 445 0 0 185 0 185
-438 0 c-241 0 -442 -3 -445 -7z"/>
<path d="M12440 6628 c0 -2 -1 -85 -3 -186 l-2 -182 168 0 167 0 0 185 0 185
-165 0 c-91 0 -165 -1 -165 -2z"/>
<path d="M1400 6025 l0 -185 450 0 450 0 0 185 0 185 -450 0 -450 0 0 -185z"/>
<path d="M2370 6025 l0 -185 445 0 445 0 0 185 0 185 -445 0 -445 0 0 -185z"/>
<path d="M3330 6025 l0 -185 445 0 445 0 0 185 0 185 -445 0 -445 0 0 -185z"/>
<path d="M4257 6203 c-4 -3 -7 -87 -7 -185 l0 -178 450 0 450 0 0 185 0 185
-443 0 c-244 0 -447 -3 -450 -7z"/>
<path d="M5220 6025 l0 -185 445 0 445 0 0 185 0 185 -445 0 -445 0 0 -185z"/>
<path d="M6180 6025 l0 -185 445 0 445 0 0 185 0 185 -445 0 -445 0 0 -185z"/>
<path d="M7110 6025 l0 -185 450 0 450 0 0 185 0 185 -450 0 -450 0 0 -185z"/>
<path d="M8070 6025 l0 -185 445 0 445 0 0 185 0 185 -445 0 -445 0 0 -185z"/>
<path d="M9037 6203 c-4 -3 -7 -87 -7 -185 l0 -178 445 0 445 0 0 185 0 185
-438 0 c-241 0 -442 -3 -445 -7z"/>
<path d="M9960 6025 l0 -185 450 0 450 0 0 185 0 185 -450 0 -450 0 0 -185z"/>
<path d="M10920 6025 l0 -185 445 0 445 0 0 185 0 185 -445 0 -445 0 0 -185z"/>
<path d="M11890 6025 l0 -185 440 0 440 0 0 185 0 185 -440 0 -440 0 0 -185z"/>
<path d="M1400 5605 l0 -185 195 0 195 0 0 185 0 185 -195 0 -195 0 0 -185z"/>
<path d="M1820 5605 l0 -185 445 0 445 0 0 185 0 185 -445 0 -445 0 0 -185z"/>
<path d="M2780 5605 l0 -185 445 0 445 0 0 185 0 185 -445 0 -445 0 0 -185z"/>
<path d="M3740 5605 l0 -185 240 0 240 0 0 185 0 185 -240 0 -240 0 0 -185z"/>
<path d="M4250 5605 l0 -185 195 0 195 0 0 185 0 185 -195 0 -195 0 0 -185z"/>
<path d="M4670 5605 l0 -185 445 0 445 0 0 185 0 185 -445 0 -445 0 0 -185z"/>
<path d="M5630 5605 l0 -185 445 0 445 0 0 185 0 185 -445 0 -445 0 0 -185z"/>
<path d="M6590 5605 l0 -185 240 0 240 0 0 185 0 185 -240 0 -240 0 0 -185z"/>
<path d="M7100 5605 l0 -185 193 0 c107 0 196 2 198 4 2 2 3 86 1 185 l-3 181
-194 0 -195 0 0 -185z"/>
<path d="M7520 5605 l0 -185 445 0 445 0 0 185 0 185 -445 0 -445 0 0 -185z"/>
<path d="M8490 5785 c0 -3 -1 -85 -1 -182 l0 -178 440 -3 441 -2 0 185 0 185
-440 0 c-242 0 -440 -2 -440 -5z"/>
<path d="M9450 5605 l0 -185 235 0 235 0 0 185 0 185 -235 0 -235 0 0 -185z"/>
<path d="M9950 5605 l0 -185 198 2 197 3 3 183 2 182 -200 0 -200 0 0 -185z"/>
<path d="M10370 5605 l0 -185 445 0 445 0 0 185 0 185 -445 0 -445 0 0 -185z"/>
<path d="M11340 5785 c0 -3 -1 -85 -1 -182 l0 -178 443 0 443 0 0 180 0 180
-442 3 c-244 1 -443 0 -443 -3z"/>
<path d="M12300 5605 l0 -185 235 0 235 0 0 185 0 185 -235 0 -235 0 0 -185z"/>
<path d="M1390 5205 l0 -185 445 0 445 0 0 185 0 185 -445 0 -445 0 0 -185z"/>
<path d="M2357 5383 c-4 -3 -7 -87 -7 -185 l0 -178 445 0 445 0 0 185 0 185
-438 0 c-241 0 -442 -3 -445 -7z"/>
<path d="M3320 5205 l0 -185 445 0 445 0 -2 183 -3 182 -442 3 -443 2 0 -185z"/>
<path d="M4240 5205 l0 -185 445 0 445 0 0 185 0 185 -445 0 -445 0 0 -185z"/>
<path d="M5207 5383 c-4 -3 -7 -87 -7 -185 l0 -178 445 0 445 0 0 185 0 185
-438 0 c-241 0 -442 -3 -445 -7z"/>
<path d="M6170 5205 l0 -185 445 0 445 0 -2 183 -3 182 -442 3 -443 2 0 -185z"/>
<path d="M7090 5205 l0 -185 450 0 450 0 -2 183 -3 182 -447 3 -448 2 0 -185z"/>
<path d="M8060 5205 l0 -185 445 0 445 0 -2 183 -3 182 -442 3 -443 2 0 -185z"/>
<path d="M9020 5205 l0 -185 445 0 445 0 0 185 0 185 -445 0 -445 0 0 -185z"/>
<path d="M9947 5383 c-4 -3 -7 -87 -7 -185 l0 -178 445 0 445 0 0 185 0 185
-438 0 c-241 0 -442 -3 -445 -7z"/>
<path d="M10910 5205 l0 -185 445 0 445 0 0 185 0 185 -445 0 -445 0 0 -185z"/>
<path d="M11870 5205 l0 -185 445 0 445 0 0 185 0 185 -445 0 -445 0 0 -185z"/>
<path d="M1390 4795 l0 -185 255 0 255 0 0 185 0 185 -255 0 -255 0 0 -185z"/>
<path d="M4240 4795 l0 -185 255 0 255 0 0 185 0 185 -255 0 -255 0 0 -185z"/>
<path d="M7092 4798 l3 -183 253 -3 252 -2 0 185 0 185 -255 0 -255 0 2 -182z"/>
<path d="M9942 4798 l3 -183 253 -3 252 -2 0 185 0 185 -255 0 -255 0 2 -182z"/>
<path d="M1940 4785 l0 -185 445 0 445 0 0 185 0 185 -445 0 -445 0 0 -185z"/>
<path d="M2900 4785 l0 -185 445 0 445 0 0 185 0 185 -445 0 -445 0 0 -185z"/>
<path d="M3870 4785 l0 -185 165 0 165 0 0 185 0 185 -165 0 -165 0 0 -185z"/>
<path d="M4790 4785 l0 -185 445 0 445 0 0 185 0 185 -445 0 -445 0 0 -185z"/>
<path d="M5750 4785 l0 -185 445 0 445 0 0 185 0 185 -445 0 -445 0 0 -185z"/>
<path d="M6720 4785 l0 -185 165 0 165 0 0 185 0 185 -165 0 -165 0 0 -185z"/>
<path d="M7640 4785 l0 -185 445 0 445 0 0 185 0 185 -445 0 -445 0 0 -185z"/>
<path d="M8610 4785 l0 -185 445 0 445 0 0 185 0 185 -445 0 -445 0 0 -185z"/>
<path d="M9570 4785 l0 -185 170 0 170 0 0 185 0 185 -170 0 -170 0 0 -185z"/>
<path d="M10490 4785 l0 -185 450 0 450 0 0 185 0 185 -450 0 -450 0 0 -185z"/>
<path d="M11460 4785 l0 -185 445 0 445 0 0 185 0 185 -445 0 -445 0 0 -185z"/>
<path d="M12420 4785 l0 -185 170 0 170 0 0 185 0 185 -170 0 -170 0 0 -185z"/>
<path d="M1390 4365 l0 -185 450 0 450 0 0 185 0 185 -450 0 -450 0 0 -185z"/>
<path d="M2350 4365 l0 -185 445 0 445 0 0 185 0 185 -445 0 -445 0 0 -185z"/>
<path d="M3320 4365 l0 -185 443 2 442 3 3 183 2 182 -445 0 -445 0 0 -185z"/>
<path d="M4240 4365 l0 -185 450 0 450 0 0 185 0 185 -450 0 -450 0 0 -185z"/>
<path d="M5200 4365 l0 -185 445 0 445 0 0 185 0 185 -445 0 -445 0 0 -185z"/>
<path d="M6170 4365 l0 -185 445 0 445 0 0 185 0 185 -445 0 -445 0 0 -185z"/>
<path d="M7090 4365 l0 -185 450 0 450 0 0 185 0 185 -450 0 -450 0 0 -185z"/>
<path d="M8060 4365 l0 -185 445 0 445 0 0 185 0 185 -445 0 -445 0 0 -185z"/>
<path d="M9020 4365 l0 -185 445 0 445 0 0 185 0 185 -445 0 -445 0 0 -185z"/>
<path d="M9940 4365 l0 -185 450 0 450 0 0 185 0 185 -450 0 -450 0 0 -185z"/>
<path d="M10910 4365 l0 -185 445 0 445 0 0 185 0 185 -445 0 -445 0 0 -185z"/>
<path d="M11870 4365 l0 -185 445 0 445 0 0 185 0 185 -445 0 -445 0 0 -185z"/>
<path d="M1382 3948 l3 -183 195 0 195 0 3 183 2 182 -200 0 -200 0 2 -182z"/>
<path d="M1800 3945 l0 -185 445 0 445 0 0 185 0 185 -445 0 -445 0 0 -185z"/>
<path d="M2770 3945 l0 -185 440 2 441 3 2 183 2 182 -442 0 -443 0 0 -185z"/>
<path d="M3730 3945 l0 -185 235 2 236 3 2 183 2 182 -237 0 -238 0 0 -185z"/>
<path d="M4237 3948 l2 -183 193 0 193 0 3 183 2 182 -197 0 -198 0 2 -182z"/>
<path d="M4650 3945 l0 -185 448 2 447 3 3 183 3 182 -450 0 -451 0 0 -185z"/>
<path d="M5620 3945 l0 -185 443 2 442 3 3 183 2 182 -445 0 -445 0 0 -185z"/>
<path d="M6580 3945 l0 -185 235 2 236 3 2 183 2 182 -237 0 -238 0 0 -185z"/>
<path d="M7090 3945 l0 -185 195 0 195 0 0 185 0 185 -195 0 -195 0 0 -185z"/>
<path d="M7510 3945 l0 -185 445 0 445 0 0 185 0 185 -445 0 -445 0 0 -185z"/>
<path d="M8470 3945 l0 -185 445 0 445 0 0 185 0 185 -445 0 -445 0 0 -185z"/>
<path d="M9432 3948 l3 -183 238 -3 237 -2 0 185 0 185 -240 0 -240 0 2 -182z"/>
<path d="M9940 3945 l0 -185 195 0 195 0 0 185 0 185 -195 0 -195 0 0 -185z"/>
<path d="M10360 3945 l0 -185 445 0 445 0 0 185 0 185 -445 0 -445 0 0 -185z"/>
<path d="M11320 3945 l0 -185 445 0 445 0 0 185 0 185 -445 0 -445 0 0 -185z"/>
<path d="M12282 3948 l3 -183 238 -3 237 -2 0 185 0 185 -240 0 -240 0 2 -182z"/>
</g>
</svg>
